<svg width="122" height="122" viewBox="0 0 122 122" fill="none" xmlns="http://www.w3.org/2000/svg">
<g filter="url(#filter0_d_1111_12410)">
<circle cx="61" cy="61" r="30" fill="#F5F6FA"/>
</g>
<path d="M49.9235 47.0474V47.5789V48.1104V50.0372C49.9235 51.964 48.4499 53.4921 46.592 53.4921H43.0682H42.5556C42.3634 53.4921 42.2353 53.4921 42.1072 53.5585C42.2353 54.5552 43.1323 55.3524 44.1574 55.3524H47.8733C48.2577 55.3524 48.7062 55.4853 49.0266 55.7511L51.269 56.7161C51.333 56.7825 51.4612 56.7825 51.5893 56.7825C51.6534 56.7825 51.7174 56.7825 51.8456 56.7161C52.0378 56.6496 52.1018 56.4503 52.1018 56.251V49.3063C52.1018 48.044 51.1408 47.0474 49.9235 47.0474Z" fill="#17479E"/>
<path d="M42.5556 52.3633H43.0682H46.656C47.9374 52.3633 48.9625 51.3002 48.9625 49.9714V48.1111V47.5796V47.048V46.4817C48.9625 45.1529 47.9374 44.0898 46.656 44.0898H40.3132C39.0319 44.0898 38.0068 45.1529 38.0068 46.4817V54.2236C38.0068 54.4229 38.1349 54.6223 38.263 54.6887C38.3271 54.6887 38.4552 54.6887 38.5193 54.6887C38.6475 54.6887 38.7115 54.6887 38.8397 54.6223L41.2743 52.8284C41.5305 52.629 41.7868 52.5626 42.0431 52.4297C42.1712 52.4297 42.3634 52.3633 42.5556 52.3633Z" fill="#ED1C24"/>
<mask id="mask0_1111_12410" style="mask-type:luminance" maskUnits="userSpaceOnUse" x="49" y="42" width="38" height="45">
<path d="M87 45.4227L52.97 42L49.0815 83.5773L83.1115 87L87 45.4227Z" fill="white"/>
</mask>
<g mask="url(#mask0_1111_12410)">
<path d="M61.2404 77.422C61.2849 77.1712 61.3389 76.9222 61.383 76.6719C61.4389 76.3547 61.4657 76.0323 61.5051 75.712C61.5203 75.5886 61.5306 75.4642 61.5527 75.3421C61.5652 75.2721 61.5469 75.2386 61.4859 75.2075C60.7234 74.8189 60.0027 74.3582 59.3163 73.8394C58.8109 73.4574 58.3313 73.0422 57.8771 72.5973C57.592 72.3179 57.3176 72.0264 57.0517 71.7263C55.8078 70.3228 54.8084 68.7516 54.0629 67.011C53.5634 65.8444 53.3165 64.6131 53.2689 63.3378C53.2455 62.7103 53.2694 62.0837 53.2861 61.4566C53.2996 60.9469 53.2969 60.4365 53.3327 59.9276C53.3596 59.5458 53.3909 59.1636 53.4609 58.7875C53.61 57.9862 53.8113 57.2018 54.1293 56.45C54.3445 55.9413 54.5463 55.4266 54.7962 54.9344C54.9483 54.6352 55.1275 54.3544 55.331 54.0905C55.4569 53.9272 55.457 53.8303 55.3198 53.6748C55.0561 53.3759 54.8643 53.0413 54.8259 52.6271C54.8004 52.3529 54.8447 52.0875 54.9128 51.8254C55.0179 51.4219 55.1924 51.0544 55.4653 50.743C55.9524 50.1867 56.5682 49.8958 57.2801 49.8117C57.6327 49.7701 57.9875 49.7721 58.342 49.7723C58.5041 49.7725 58.6578 49.736 58.8033 49.662C58.9574 49.5836 59.1195 49.5228 59.2518 49.4C59.3617 49.2979 59.3909 49.2229 59.3393 49.0763C59.2712 48.8831 59.1916 48.6934 59.1372 48.4962C59.0433 48.1557 59.0913 47.8304 59.2547 47.5167C59.4872 47.0704 59.8206 46.7203 60.2003 46.4117C60.5909 46.0945 60.9918 45.7942 61.4409 45.5681C61.9954 45.2889 62.5836 45.1332 63.1899 45.0449C63.8136 44.9539 64.4402 44.9499 65.0671 45.0045C66.1356 45.0977 67.1268 45.4463 68.0642 45.9757C68.256 46.0839 68.4536 46.181 68.6488 46.2831C68.6776 46.2982 68.7073 46.3239 68.7292 46.2726C68.8398 46.014 69.0698 45.9075 69.2962 45.7978C69.4404 45.728 69.6008 45.7074 69.7473 45.6504C70.1698 45.4857 70.5876 45.5928 71.0057 45.6524C71.7275 45.7553 72.3786 46.0786 73.0385 46.3716C73.2782 46.4779 73.5061 46.6164 73.7511 46.7056C74.0129 46.8009 74.2556 46.9304 74.4942 47.0705C75.2434 47.5103 75.9991 47.9388 76.7169 48.4335C77.2978 48.8337 77.8368 49.2885 78.3664 49.7581C78.6365 49.9975 78.8805 50.2586 79.1232 50.5259C79.5032 50.944 79.8655 51.3766 80.2017 51.8318C80.7856 52.6225 81.2784 53.4731 81.6926 54.3716C82.3708 55.8435 82.8345 57.3839 83.0581 59.0001C83.151 59.6713 83.1992 60.3455 83.2041 61.0238C83.2085 61.6384 83.1767 62.2504 83.1093 62.8606C82.9696 64.124 82.6837 65.3517 82.2572 66.5438C81.7853 67.8631 81.1554 69.0961 80.3645 70.2397C79.972 70.8073 79.5449 71.3457 79.0789 71.8509C78.7645 72.1919 78.4406 72.5223 78.1017 72.8376C76.3275 74.4888 74.2863 75.6283 71.9891 76.2789C71.9105 76.3011 71.8746 76.3271 71.8496 76.4236C71.7728 76.7197 71.6805 77.012 71.6061 77.3092C71.5425 77.5634 71.4821 77.8185 71.4223 78.0737C71.3553 78.3587 71.2878 78.6437 71.2252 78.9298C71.1699 79.183 71.1259 79.4389 71.0686 79.6915C70.9971 80.0071 70.9232 80.3222 70.8392 80.6342C70.7294 81.0428 70.6006 81.4451 70.4113 81.8232C70.2145 82.2159 69.9668 82.5655 69.6083 82.8183C69.3958 82.9681 69.161 83.0227 68.9041 83.0217C68.7106 83.0208 68.5198 83.0009 68.3293 82.9788C67.924 82.9317 67.5552 82.7847 67.231 82.5228C66.9658 82.3086 66.7153 82.0831 66.5206 81.7922C66.1121 81.1822 66.1016 80.3035 66.6267 79.7244C66.9661 79.3503 67.3798 79.2424 67.8453 79.2514C68.018 79.2546 68.1877 79.2882 68.3565 79.3253C68.3586 79.3293 68.3607 79.3331 68.3627 79.3371C68.3648 79.3353 68.367 79.3333 68.3692 79.3314C68.366 79.3285 68.3627 79.3256 68.3594 79.3227C68.3495 78.9477 68.3345 78.5725 68.2964 78.1995C68.2513 77.7585 68.1946 77.3189 68.1489 76.8781C68.1429 76.8196 68.1294 76.8167 68.0808 76.8167C67.3083 76.8145 66.5398 76.7544 65.7768 76.6292C65.4622 76.5776 65.1481 76.5196 64.8383 76.4403C64.8017 76.431 64.7766 76.4221 64.7464 76.4744C64.6801 76.5887 64.6246 76.7084 64.5639 76.8251C64.4318 77.0793 64.3055 77.3369 64.1812 77.5955C64.0724 77.8215 63.9726 78.0521 63.8635 78.278C63.7868 78.4368 63.7023 78.5914 63.6281 78.752C63.5615 78.8962 63.4734 79.0298 63.4034 79.1726C63.2349 79.5167 63.0346 79.8398 62.8112 80.1478C62.664 80.3508 62.5004 80.5406 62.3111 80.701C62.0115 80.9547 61.691 81.1778 61.2868 81.1931C61.0274 81.2029 60.7818 81.1141 60.5391 81.0281C60.2241 80.9164 59.9277 80.772 59.6729 80.5397C59.5237 80.4038 59.4101 80.2401 59.283 80.0863C59.0988 79.8634 58.9702 79.6086 58.8717 79.3366C58.7361 78.9626 58.7339 78.5841 58.8444 78.2017C58.9324 77.8977 59.1056 77.6479 59.3379 77.4571C59.7045 77.1562 60.125 77.0731 60.5887 77.1793C60.8184 77.2318 61.0283 77.3211 61.2366 77.4244C61.2388 77.4282 61.2409 77.4322 61.2432 77.4361C61.2453 77.4342 61.2475 77.4322 61.2497 77.4304C61.2465 77.4273 61.2433 77.4244 61.2402 77.4213L61.2404 77.422ZM58.4599 50.3245C58.1687 50.35 57.8836 50.4066 57.6014 50.4866C57.0472 50.6439 56.5394 50.8887 56.1335 51.3204C55.7799 51.6965 55.5388 52.1311 55.5752 52.68C55.5927 52.9437 55.6534 53.2012 55.8305 53.4029C56.0251 53.6246 56.069 53.8644 55.942 54.1298C55.7787 54.4708 55.6219 54.817 55.4333 55.143C54.9077 56.0516 54.5675 57.0304 54.3663 58.0645C54.2842 58.4865 54.2032 58.909 54.1377 59.334C54.0629 59.8206 53.995 60.3084 53.9624 60.8011C53.9354 61.2102 53.9586 61.6202 53.922 62.0296C53.8892 62.3964 53.9012 62.7657 53.9349 63.1333C53.9359 63.2017 53.9308 63.271 53.9389 63.3386C54.0206 64.02 54.0697 64.705 54.2816 65.3659C54.5019 66.0532 54.7187 66.7396 55.0467 67.3817C55.4404 68.1528 55.9305 68.8627 56.3623 69.6099C56.6065 70.0324 56.8889 70.4285 57.183 70.816C57.3924 71.0921 57.6036 71.365 57.854 71.6025C58.1133 71.8486 58.3812 72.0847 58.657 72.3105C59.6123 73.0923 60.6409 73.7511 61.7467 74.2786C62.7568 74.7606 63.8052 75.1234 64.8934 75.3629C65.4887 75.4938 66.0878 75.5928 66.6945 75.6414C66.7176 75.6444 66.7406 75.649 66.7637 75.6504C67.2264 75.682 67.6893 75.6988 68.1534 75.6906C68.5375 75.6838 68.9204 75.664 69.3021 75.6262C70.069 75.5502 70.8248 75.4081 71.5691 75.2015C72.195 75.0277 72.8077 74.8126 73.4047 74.5512C74.1299 74.2338 74.8257 73.8577 75.4923 73.4221C75.972 73.1087 76.4309 72.7659 76.8754 72.4024C77.1382 72.1873 77.3808 71.9472 77.6256 71.71C77.9696 71.3767 78.2931 71.0235 78.5984 70.6525C79.2554 69.8539 79.8261 68.9933 80.3156 68.0747C80.6351 67.475 80.9192 66.8574 81.1488 66.2149C81.4088 65.4872 81.6121 64.7427 81.7665 63.9826C81.8602 63.5213 81.925 63.0561 81.9879 62.5907C82.0394 62.2091 82.0473 61.823 82.0625 61.438C82.0822 60.9438 82.0691 60.4508 82.0399 59.9576C81.9935 59.175 81.885 58.4015 81.7237 57.636C81.4899 56.5263 81.1435 55.4546 80.704 54.4146C80.4051 53.7078 80.0527 53.0312 79.6289 52.3971C79.3344 51.9563 79.0138 51.5347 78.6889 51.1174C78.6684 51.0911 78.6529 51.0585 78.6196 51.0452C78.5117 50.8974 78.4185 50.7343 78.293 50.6047C77.926 50.2256 77.5355 49.8725 77.1274 49.5412C76.9612 49.4063 76.8004 49.2635 76.6154 49.1551C76.6022 49.1405 76.5909 49.1232 76.5753 49.1117C75.9446 48.6435 75.2787 48.2372 74.5792 47.889C74.0208 47.6111 73.4389 47.3881 72.8814 47.1074C72.5688 46.9498 72.2448 46.8142 71.9121 46.7045C71.7886 46.629 71.6542 46.5798 71.5185 46.5351C71.2506 46.4464 71.002 46.3009 70.7184 46.2573C70.278 46.1894 69.8536 46.2377 69.4413 46.4142C69.3462 46.4549 69.2905 46.5131 69.2687 46.6184C69.2029 46.9368 68.9109 47.058 68.6602 46.973C68.3899 46.8815 68.1405 46.7455 67.8945 46.6039C66.85 46.0027 65.7435 45.6359 64.5397 45.6135C63.9975 45.6033 63.4593 45.6307 62.9265 45.7383C62.5172 45.821 62.1146 45.928 61.7385 46.122C61.7259 46.1252 61.7127 46.1268 61.7009 46.1322C61.2688 46.328 60.903 46.6215 60.5746 46.9668C60.4053 47.1447 60.2462 47.3331 60.143 47.5636C59.986 47.8326 59.9066 48.1206 59.9535 48.4365C59.9747 48.5787 60.0097 48.7188 60.0283 48.8612C60.0997 49.4115 59.8761 49.8034 59.441 50.0014C59.2094 50.1069 58.9654 50.1896 58.7166 50.2499C58.6302 50.2708 58.5412 50.2842 58.46 50.3251L58.4599 50.3245ZM66.6069 80.4652C66.5875 80.6684 66.649 80.8235 66.7372 80.8644C66.8608 80.9217 67.0284 80.9246 67.1174 80.7782C67.1423 80.7371 67.1763 80.6964 67.2097 80.6607C67.4703 80.3821 67.7832 80.2312 68.1641 80.2632C68.2396 80.2696 68.3078 80.2585 68.375 80.2236C68.47 80.1742 68.5101 80.0628 68.4577 79.9701C68.339 79.7602 68.1547 79.6377 67.9406 79.5505C67.6568 79.4349 67.3842 79.4882 67.1327 79.6287C66.7945 79.8176 66.672 80.1607 66.607 80.4654L66.6069 80.4652ZM60.5725 78.2307C60.6763 78.2225 60.7771 78.28 60.8839 78.3152C60.98 78.3467 61.0643 78.3149 61.1367 78.2413C61.1918 78.1855 61.1713 78.1213 61.1489 78.0685C61.0207 77.7679 60.8226 77.545 60.5007 77.467C60.3093 77.4206 60.1203 77.4324 59.9423 77.5158C59.6612 77.6475 59.4855 77.8836 59.3729 78.1745C59.3416 78.2554 59.3619 78.3343 59.4126 78.3967C59.5459 78.5606 59.6561 78.559 59.8418 78.4306C60.0608 78.2792 60.2927 78.1912 60.5726 78.2307L60.5725 78.2307Z" fill="#451611"/>
<path d="M66.6949 75.6415C66.0881 75.5929 65.489 75.4941 64.8938 75.363C63.8054 75.1235 62.757 74.7607 61.747 74.2787C60.6413 73.751 59.6126 73.0924 58.6574 72.3106C58.3816 72.0848 58.1137 71.8487 57.8543 71.6026C57.604 71.3651 57.3928 71.0922 57.1833 70.8161C56.8893 70.4286 56.607 70.0325 56.3627 69.61C55.9309 68.863 55.4407 68.1529 55.047 67.3818C54.719 66.7396 54.5024 66.0533 54.282 65.366C54.0701 64.7051 54.021 64.0201 53.9392 63.3387C53.9311 63.2711 53.9363 63.202 53.9352 63.1334C53.976 63.0916 53.9653 63.0356 53.9638 62.9876C53.9547 62.6857 53.9789 62.3848 53.9952 62.0842C54.0231 61.5661 54.1097 61.0545 54.1781 60.5412C54.2353 60.5561 54.2106 60.6021 54.2071 60.6344C54.1698 60.9847 54.205 61.333 54.2474 61.6789C54.2957 62.0728 54.3608 62.4643 54.3994 62.8596C54.4895 63.7768 54.6927 64.6672 54.9972 65.5322C55.2401 66.2223 55.5446 66.8824 55.9188 67.5075C56.0538 67.733 56.1931 67.9535 56.3827 68.1351C56.8703 68.602 57.4418 68.9231 58.0582 69.1638C58.3523 69.2787 58.6575 69.3581 58.9585 69.4507C59.5207 69.6235 60.072 69.8285 60.6186 70.047C60.9702 70.1877 61.2984 70.3702 61.5745 70.6459C61.803 70.8741 61.9933 71.1349 62.1926 71.3879C62.4792 71.7517 62.8081 72.0593 63.2092 72.2834C63.6836 72.5484 64.1903 72.7072 64.7179 72.8073C64.8981 72.8414 65.0804 72.8516 65.2598 72.8845C65.6266 72.9515 65.9957 72.991 66.3674 72.9654C66.7556 72.9386 67.143 72.9005 67.5289 72.8431C68.1068 72.7573 68.6763 72.6346 69.2378 72.4703C69.9581 72.2596 70.6563 71.9873 71.333 71.6563C72.1633 71.25 72.9471 70.7618 73.6756 70.1839C74.063 69.8767 74.4376 69.5516 74.7928 69.2025C75.1905 68.8117 75.5023 68.3598 75.7452 67.854C75.8869 67.559 75.9528 67.241 75.9935 66.9168C76.0514 66.4533 76.0502 65.982 76.1635 65.5256C76.2576 65.1473 76.3826 64.7838 76.6186 64.4723C76.8146 64.2135 77.0522 64.0115 77.3744 63.9611C77.5109 63.9398 77.5918 63.8764 77.6601 63.7604C77.9709 63.233 78.2384 62.6888 78.334 62.0691C78.3904 61.7039 78.4599 61.3406 78.5115 60.9746C78.5379 60.7882 78.5406 60.5978 78.5528 60.4093C78.5852 59.9088 78.5999 59.4088 78.5894 58.9073C78.5815 58.5303 78.568 58.1536 78.5166 57.7806C78.442 57.2372 78.2897 56.713 78.1109 56.1983C77.8857 55.5497 77.614 54.9218 77.2751 54.3272C77.174 54.15 77.0762 53.97 76.9504 53.809C76.8673 53.7026 76.7565 53.6242 76.6841 53.5051C76.646 53.4426 76.5714 53.4152 76.4943 53.4057C76.4025 53.3944 76.3102 53.3791 76.2211 53.3543C75.8304 53.2458 75.4932 53.0392 75.2205 52.7303C74.7117 52.1538 74.5008 51.4652 74.5465 50.692C74.5628 50.4172 74.6302 50.1472 74.7472 49.8999C74.8743 49.6316 75.0536 49.4134 75.3615 49.3466C75.5791 49.2995 75.6581 48.9932 75.5037 48.8283C75.4461 48.7668 75.3852 48.7097 75.3159 48.6611C75.201 48.5806 75.09 48.4939 74.9775 48.4096C75.0062 48.4168 75.0364 48.4204 75.0635 48.4321C75.3576 48.5575 75.6526 48.6812 75.9447 48.8116C76.1355 48.8967 76.3372 48.962 76.4915 49.1202C76.5199 49.1494 76.5633 49.1837 76.6147 49.1546C76.7994 49.2631 76.9605 49.4058 77.1267 49.5407C77.5348 49.8721 77.9253 50.225 78.2923 50.6041C78.4177 50.7337 78.5109 50.8969 78.6189 51.0447C78.6192 51.1392 78.6727 51.2209 78.6789 51.3145C78.6814 51.3515 78.7057 51.3975 78.6763 51.4221C78.6432 51.4497 78.6022 51.4151 78.5683 51.3998C78.4165 51.3316 78.2659 51.2729 78.0937 51.2781C77.8678 51.285 77.6883 51.4204 77.6199 51.6454C77.5584 51.8474 77.5926 52.0461 77.6228 52.2449C77.6799 52.6207 77.8839 52.9259 78.0843 53.2291C78.4725 53.8162 78.8304 54.4222 79.1588 55.0469C79.5867 55.8608 79.9628 56.6996 80.2493 57.5791C80.386 57.9992 80.5025 58.4252 80.5841 58.8613C80.6514 59.2216 80.7023 59.584 80.7317 59.9493C80.7588 60.2868 80.7655 60.625 80.7622 60.9639C80.7605 61.1454 80.7573 61.3269 80.7551 61.5084C80.7518 61.769 80.7403 62.0283 80.6943 62.2847C80.6441 62.5638 80.5872 62.8418 80.5397 63.1214C80.4937 63.3913 80.4509 63.6614 80.3724 63.9239C80.2397 64.3673 80.0776 64.7985 79.8865 65.2187C79.6363 65.7688 79.3401 66.2892 78.97 66.7613C78.697 67.1098 78.4004 67.433 78.0019 67.633C77.9292 67.6696 77.8599 67.6889 77.774 67.66C77.5631 67.5892 77.3447 67.574 77.127 67.6211C76.4981 67.7572 76.0609 68.1463 75.8079 68.748C75.62 69.1948 75.5215 69.673 75.41 70.1455C75.3757 70.2907 75.3592 70.4434 75.2517 70.5604C75.1852 70.6329 75.1399 70.7217 75.0903 70.807C74.7352 71.4196 74.2705 71.9261 73.7197 72.3541C73.4082 72.5961 73.0837 72.8143 72.7419 73.0048C72.2409 73.284 71.7165 73.5077 71.1755 73.6888C70.6668 73.8591 70.1484 73.9902 69.6212 74.0796C69.086 74.1703 68.5477 74.2262 68.0046 74.2425C67.6672 74.2526 67.3295 74.2573 66.9944 74.2341C66.4521 74.1966 65.9116 74.1364 65.3778 74.018C64.9537 73.9241 64.5355 73.8127 64.1266 73.6649C63.4786 73.4306 62.8635 73.1262 62.3006 72.7157C62.0346 72.5217 61.7861 72.3058 61.5573 72.0645C61.4862 71.9893 61.4352 71.8924 61.3421 71.84C61.4086 71.7278 61.4789 71.617 61.4757 71.4773C61.5182 71.3884 61.5145 71.2925 61.5099 71.198C61.4972 70.9331 61.3777 70.7117 61.2315 70.5056C61.0916 70.3085 60.8927 70.233 60.6641 70.2685C60.3929 70.3106 60.2745 70.4726 60.2564 70.7941C60.057 70.7201 59.8495 70.6771 59.6432 70.6317C59.3818 70.5743 59.1156 70.5364 58.8619 70.447C58.4233 70.2924 57.9799 70.146 57.5703 69.9199C57.089 69.6542 56.6383 69.3381 56.2296 68.9606C56.1431 68.8807 56.0521 68.8065 55.9762 68.7141C55.9076 68.6308 55.8315 68.5543 55.7586 68.4749C55.7751 68.569 55.8381 68.6259 55.8886 68.6912C56.1335 69.0081 56.3819 69.3224 56.6573 69.612C56.9184 69.8865 57.2042 70.1322 57.505 70.3584C57.8947 70.6511 58.2884 70.9378 58.7148 71.1716C58.9815 71.3178 59.2517 71.4568 59.5164 71.6066C59.9654 71.8606 60.3121 72.2422 60.6649 72.6148C60.8805 72.8426 61.0893 73.0776 61.313 73.2966C61.6226 73.5996 61.9725 73.8507 62.3295 74.0889C62.8638 74.4454 63.4355 74.7277 64.0244 74.9719C64.2389 75.0609 64.4544 75.1475 64.6832 75.1957C64.8937 75.2401 65.1042 75.2832 65.3159 75.3215C65.6314 75.3785 65.9401 75.4694 66.2573 75.5206C66.4049 75.5444 66.5577 75.5651 66.6941 75.6407L66.6949 75.6415ZM78.1246 64.7165L78.1054 64.6924L78.106 64.6936C78.0942 64.6262 78.0393 64.6009 77.9898 64.5792C77.6264 64.4209 77.3291 64.4832 77.0572 64.7963C76.8442 65.0415 76.7286 65.3356 76.6686 65.6618C76.6122 65.9682 76.6098 66.2669 76.6936 66.5652C76.7091 66.6208 76.7104 66.6906 76.7761 66.7199L76.7746 66.7189C76.7821 66.7271 76.7896 66.7351 76.797 66.7432C76.9127 66.9415 77.065 67.0898 77.2941 67.1326C77.3045 67.1789 77.347 67.1822 77.3787 67.1943C77.7136 67.3229 78.0646 67.2044 78.267 66.9537C78.6314 66.5026 78.7977 65.9802 78.6396 65.384C78.5789 65.1551 78.4716 64.9594 78.2949 64.8071C78.2612 64.778 78.2191 64.7416 78.2143 64.8304C78.1898 64.7999 78.1652 64.7696 78.1409 64.7391C78.1615 64.71 78.1307 64.7217 78.1232 64.7151L78.1247 64.7165L78.1246 64.7165ZM72.1212 72.0996C72.1294 72.0402 72.1184 71.9847 72.0932 71.9306C71.985 71.699 71.6711 71.6247 71.4627 71.7741C71.3055 71.8866 71.2339 72.0445 71.2174 72.2316C71.2118 72.2949 71.2222 72.3697 71.292 72.4077C71.3611 72.6144 71.5072 72.7106 71.7122 72.7182C71.922 72.7259 72.1141 72.5855 72.12 72.3649C72.1223 72.2763 72.1098 72.1877 72.1214 72.0996L72.1212 72.0996ZM75.4786 52.476C75.4844 52.5521 75.548 52.5831 75.5934 52.6242C75.7821 52.7952 76.0822 52.8935 76.312 52.7668C76.5389 52.6419 76.629 52.4249 76.6698 52.1799C76.7548 51.6706 76.6434 51.1959 76.4139 50.7474C76.3707 50.6631 76.3401 50.5617 76.2474 50.5118C76.1435 50.3364 76.0224 50.1785 75.8406 50.0826C75.8614 50.068 75.8532 50.054 75.8381 50.0432C75.7149 49.9544 75.5832 49.9112 75.4361 49.973C75.2844 50.0365 75.1778 50.1544 75.1055 50.301C74.9043 50.7084 74.8868 51.1366 74.9987 51.5719C75.0222 51.6632 75.0357 51.7678 75.1183 51.8335C75.1952 52.0739 75.3048 52.2943 75.4787 52.476L75.4786 52.476Z" fill="#B77C3B"/>
<path d="M61.3422 71.8409C61.4354 71.8931 61.4864 71.9903 61.5575 72.0654C61.7862 72.3067 62.0348 72.5226 62.3008 72.7166C62.8636 73.1271 63.4788 73.4315 64.1268 73.6658C64.5356 73.8136 64.9539 73.9248 65.3779 74.0189C65.9118 74.1373 66.4523 74.1975 66.9946 74.235C67.3298 74.2583 67.6674 74.2533 68.0047 74.2434C68.5479 74.2271 69.0861 74.1713 69.6213 74.0805C70.1488 73.9911 70.667 73.86 71.1756 73.6897C71.7166 73.5086 72.2412 73.2849 72.7421 73.0057C73.0839 72.8152 73.4084 72.597 73.7198 72.355C74.2707 71.9268 74.7354 71.4205 75.0905 70.8079C75.1399 70.7226 75.1854 70.6336 75.2519 70.5613C75.3594 70.4445 75.376 70.2917 75.4101 70.1465C75.5215 69.6739 75.6201 69.1958 75.8081 68.749C76.0611 68.1472 76.4983 67.7581 77.1272 67.622C77.3449 67.5749 77.5633 67.5902 77.7741 67.6609C77.86 67.6897 77.9294 67.6705 78.0021 67.634C78.4006 67.4339 78.697 67.1107 78.9702 66.7622C79.3403 66.2899 79.6365 65.7695 79.8867 65.2196C80.0778 64.7994 80.2399 64.3683 80.3726 63.9249C80.451 63.6623 80.4941 63.3921 80.5399 63.1223C80.5874 62.8427 80.6444 62.5647 80.6944 62.2856C80.7405 62.0292 80.7519 61.7699 80.7552 61.5093C80.7574 61.3278 80.7607 61.1463 80.7624 60.9648C80.7655 60.626 80.759 60.2877 80.7318 59.9502C80.7025 59.5847 80.6518 59.2223 80.5843 58.8622C80.5026 58.4261 80.3862 58.0001 80.2495 57.58C79.9629 56.7005 79.5868 55.8617 79.159 55.0478C78.8307 54.4231 78.4727 53.8172 78.0845 53.23C77.8841 52.9269 77.68 52.6216 77.6229 52.2458C77.5927 52.047 77.5587 51.8483 77.6201 51.6463C77.6886 51.4215 77.868 51.2861 78.0939 51.279C78.2661 51.2738 78.4165 51.3325 78.5684 51.4007C78.6023 51.416 78.6434 51.4506 78.6765 51.423C78.7058 51.3984 78.6816 51.3524 78.6791 51.3154C78.6727 51.2218 78.6192 51.1401 78.6191 51.0456C78.6525 51.0589 78.6679 51.0915 78.6883 51.1178C79.0132 51.5351 79.3338 51.9567 79.6283 52.3975C80.0521 53.0317 80.4045 53.7082 80.7034 54.415C81.1431 55.455 81.4895 56.5267 81.7231 57.6364C81.8843 58.4018 81.9929 59.1752 82.0393 59.958C82.0685 60.4512 82.0817 60.944 82.062 61.4384C82.0467 61.8236 82.0388 62.2097 81.9873 62.5911C81.9246 63.0567 81.8597 63.5218 81.7659 63.9829C81.6116 64.7431 81.4082 65.4877 81.1482 66.2152C80.9186 66.8579 80.6346 67.4753 80.315 68.0751C79.8255 68.9937 79.2548 69.8543 78.5978 70.6529C78.2926 71.0239 77.9691 71.377 77.625 71.7104C77.3802 71.9476 77.1376 72.1876 76.8748 72.4027C76.4304 72.7665 75.9716 73.1091 75.4918 73.4225C74.8251 73.8581 74.1294 74.234 73.4041 74.5516C72.8071 74.8129 72.1946 75.028 71.5685 75.2019C70.8243 75.4086 70.0684 75.5506 69.3016 75.6266C68.9198 75.6644 68.5369 75.6842 68.1529 75.691C67.6888 75.6992 67.2258 75.6826 66.7631 75.6508C66.74 75.6492 66.7171 75.6448 66.694 75.6418C66.5575 75.5663 66.4045 75.5456 66.2571 75.5217C65.9399 75.4705 65.6312 75.3796 65.3157 75.3225C65.1041 75.2842 64.8935 75.2412 64.683 75.1968C64.4543 75.1485 64.2386 75.062 64.0243 74.973C63.4353 74.7288 62.8637 74.4463 62.3293 74.0899C61.9722 73.8517 61.6224 73.6006 61.3128 73.2976C61.0891 73.0789 60.8803 72.8437 60.6647 72.6159C60.3118 72.243 59.9652 71.8615 59.5162 71.6077C59.2515 71.4581 58.9811 71.3189 58.7146 71.1727C58.2881 70.9388 57.8944 70.6522 57.5048 70.3594C57.2038 70.1332 56.9181 69.8875 56.6571 69.613C56.3817 69.3237 56.1333 69.0093 55.8884 68.6922C55.8379 68.6269 55.775 68.57 55.7585 68.476C55.8313 68.5554 55.9075 68.6319 55.976 68.7151C56.052 68.8074 56.1429 68.8816 56.2295 68.9617C56.6381 69.3391 57.0888 69.6554 57.5701 69.9209C57.9797 70.1471 58.4231 70.2937 58.8617 70.4481C59.1156 70.5374 59.3816 70.5754 59.643 70.6328C59.8495 70.6782 60.0568 70.721 60.2562 70.7951C60.2817 70.8266 60.2674 70.8766 60.3028 70.9035C60.2774 71.0474 60.3099 71.1814 60.3582 71.316C60.3957 71.4204 60.448 71.5149 60.5074 71.6054C60.6868 71.878 61.0328 72.072 61.3417 71.8412L61.3422 71.8409ZM77.2569 68.136C77.0504 68.0721 76.8675 68.1407 76.7085 68.2665C76.242 68.6359 76.0478 69.1462 76.0321 69.7399C76.0292 69.8485 76.0173 69.9634 76.0822 70.0628C76.1281 70.2299 76.1583 70.3999 76.2405 70.5572C76.4412 70.9409 76.8412 71.0162 77.1628 70.8486C77.6136 70.6137 77.8066 70.1843 77.8966 69.6984C77.9499 69.4106 77.9296 69.1184 77.8801 68.8302C77.823 68.4976 77.6031 68.1634 77.2571 68.1362L77.2569 68.136Z" fill="#8B5028"/>
<path d="M54.178 60.5407C54.1094 61.054 54.0229 61.5656 53.9951 62.0837C53.9789 62.3843 53.9546 62.6852 53.9636 62.9871C53.9651 63.0351 53.9758 63.0911 53.9351 63.1329C53.9016 62.7653 53.8894 62.3959 53.9222 62.0292C53.9588 61.6198 53.9354 61.2099 53.9626 60.8006C53.9952 60.308 54.0629 59.8202 54.1379 59.3336C54.2034 58.9087 54.2844 58.4861 54.3665 58.0641C54.5677 57.0301 54.9079 56.0512 55.4335 55.1426C55.6221 54.8167 55.7789 54.4705 55.9422 54.1294C56.0692 53.8642 56.0253 53.6242 55.8307 53.4025C55.6536 53.2008 55.5929 52.9434 55.5755 52.6796C55.539 52.1308 55.7802 51.6962 56.1338 51.3201C56.5396 50.8883 57.0474 50.6435 57.6016 50.4863C57.8838 50.4063 58.1689 50.3496 58.4601 50.3242C58.4829 50.3588 58.5195 50.3508 58.5511 50.3538C58.6565 50.3637 58.7623 50.3654 58.8679 50.3697C59.1813 50.3825 59.4646 50.2869 59.7307 50.1324C59.9996 49.9762 60.2088 49.7565 60.2794 49.4339C60.3365 49.1736 60.3351 48.9094 60.2761 48.6466C60.2182 48.3895 60.1603 48.1328 60.144 47.8669C60.1378 47.7645 60.1816 47.6633 60.1429 47.5625C60.2461 47.332 60.4052 47.1435 60.5745 46.9658C60.9029 46.6207 61.2687 46.3272 61.7008 46.1312C61.7126 46.1258 61.7258 46.1244 61.7384 46.121C61.7746 46.1246 61.8103 46.1243 61.847 46.1213C62.007 46.1083 62.1557 46.0456 62.3109 46.0126C62.7771 45.9132 63.25 45.8982 63.7206 45.9316C64.1662 45.9631 64.6127 45.9977 65.0529 46.0969C65.4688 46.1905 65.8693 46.325 66.2557 46.505C66.8348 46.7747 67.3953 47.0899 68.0127 47.264C68.3303 47.3534 68.6426 47.4666 68.9801 47.4551C69.2074 47.4473 69.4177 47.4105 69.5921 47.2397C69.6911 47.1428 69.7336 47.018 69.7877 46.897C69.8458 46.7675 69.9351 46.6729 70.0658 46.6197C70.2233 46.5555 70.3858 46.5457 70.5528 46.5474C70.9484 46.5514 71.3374 46.6084 71.7255 46.6822C71.786 46.6937 71.8456 46.7388 71.9118 46.7035C72.2444 46.8133 72.5685 46.9488 72.8811 47.1063C73.4388 47.3873 74.0204 47.6101 74.5789 47.888C75.2784 48.2362 75.9443 48.6422 76.575 49.1106C76.5904 49.1221 76.6018 49.1395 76.6151 49.1541C76.5637 49.1831 76.5203 49.149 76.4919 49.1196C76.3376 48.9615 76.136 48.8962 75.9451 48.8111C75.6529 48.6807 75.3581 48.5569 75.0639 48.4315C75.0369 48.42 75.0066 48.4165 74.9779 48.4091L74.9788 48.4097C74.9734 48.3892 74.9555 48.3873 74.94 48.3816C74.9183 48.3527 74.8871 48.3436 74.855 48.3324C74.7298 48.2889 74.6052 48.2431 74.4808 48.1972C74.1654 48.0809 73.8399 48.0046 73.5103 47.9524C73.1757 47.8991 72.8378 47.8916 72.5006 47.9325C72.0885 47.9824 71.6935 48.0924 71.3388 48.3228C71.1142 48.4688 70.9214 48.6604 70.701 48.8142C70.4813 48.9676 70.2495 49.0903 69.9944 49.1572C69.5199 49.2817 69.0415 49.2637 68.5678 49.1544C68.1315 49.0538 67.724 48.8719 67.348 48.6211C67.0803 48.4424 66.8182 48.2547 66.5583 48.0641C66.1593 47.7714 65.7163 47.6536 65.2315 47.6762C64.7234 47.7 64.2456 47.8389 63.7939 48.0749C63.2916 48.3375 62.9257 48.7533 62.6108 49.2255C62.3959 49.5478 62.2124 49.8913 61.9871 50.2064C61.7861 50.4872 61.5555 50.7324 61.2683 50.9222C60.9387 51.14 60.5729 51.215 60.1939 51.2459C59.714 51.285 59.2316 51.2831 58.752 51.331C58.4256 51.3638 58.1026 51.4154 57.7875 51.5138C57.4599 51.616 57.2065 51.8367 56.9496 52.0564C56.6351 52.3251 56.5713 52.8076 56.731 53.1466C56.924 53.5562 56.8936 53.9433 56.6717 54.3234C56.5048 54.6092 56.3239 54.8867 56.1642 55.1767C55.9636 55.5412 55.8171 55.9333 55.653 56.3165C55.5442 56.5706 55.4635 56.8421 55.3257 57.0778C54.9789 57.6707 54.7406 58.3075 54.5442 58.965C54.4466 59.2921 54.3624 59.6232 54.2969 59.9581C54.2588 60.1524 54.1935 60.341 54.1782 60.5402L54.178 60.5407Z" fill="#FABF4C"/>
<path d="M71.9116 46.704C71.8454 46.7395 71.7856 46.6943 71.7253 46.6827C71.3374 46.6088 70.9482 46.5519 70.5526 46.5479C70.3857 46.5462 70.2231 46.556 70.0656 46.6202C69.935 46.6735 69.8456 46.7679 69.7875 46.8976C69.7332 47.0184 69.6909 47.1433 69.5919 47.2402C69.4175 47.411 69.2072 47.4477 68.9798 47.4556C68.6423 47.4673 68.3301 47.3541 68.0125 47.2646C67.395 47.0906 66.8346 46.7752 66.2555 46.5055C65.8691 46.3256 65.4686 46.191 65.0527 46.0974C64.6123 45.9984 64.1659 45.9637 63.7204 45.9321C63.2497 45.8989 62.7769 45.9138 62.3107 46.0131C62.1555 46.0462 62.007 46.1088 61.8468 46.1218C61.8101 46.1248 61.7744 46.1252 61.7382 46.1215C62.1144 45.9275 62.5169 45.8205 62.9262 45.7378C63.459 45.6302 63.9972 45.6028 64.5394 45.613C65.7432 45.6354 66.8497 46.0022 67.8942 46.6034C68.1402 46.745 68.3896 46.8808 68.6599 46.9725C68.9106 47.0574 69.2026 46.9365 69.2684 46.6179C69.2902 46.5126 69.3457 46.4544 69.4409 46.4137C69.8533 46.2372 70.2776 46.1889 70.718 46.2568C71.0016 46.3004 71.2503 46.4458 71.5182 46.5346C71.6538 46.5795 71.7883 46.6285 71.9118 46.704L71.9116 46.704Z" fill="#EEA942"/>
<path d="M66.607 80.4656C66.672 80.1609 66.7945 79.8178 67.1327 79.6289C67.3842 79.4883 67.6566 79.435 67.9406 79.5506C68.1547 79.6379 68.339 79.7603 68.4577 79.9703C68.5103 80.063 68.47 80.1745 68.375 80.2238C68.3078 80.2587 68.2396 80.2695 68.1641 80.2633C67.7832 80.2314 67.4703 80.3824 67.2097 80.6609C67.1763 80.6966 67.1425 80.7372 67.1174 80.7784C67.0284 80.9248 66.8609 80.9221 66.7372 80.8646C66.6491 80.8237 66.5875 80.6685 66.6068 80.4654L66.607 80.4656Z" fill="#723B22"/>
<path d="M60.5723 78.2306C60.2923 78.1911 60.0604 78.2789 59.8414 78.4305C59.6557 78.5589 59.5455 78.5605 59.4122 78.3966C59.3615 78.3342 59.3412 78.2554 59.3725 78.1745C59.4851 77.8835 59.6608 77.6474 59.9419 77.5157C60.1199 77.4323 60.3089 77.4207 60.5003 77.467C60.8222 77.5449 61.0203 77.7678 61.1485 78.0684C61.1709 78.1212 61.1915 78.1852 61.1363 78.2412C61.0639 78.3147 60.9798 78.3466 60.8835 78.3151C60.7765 78.2799 60.6759 78.2225 60.5721 78.2306L60.5723 78.2306Z" fill="#723B22"/>
<path d="M60.1429 47.5628C60.1818 47.6636 60.1378 47.7648 60.144 47.8673C60.1602 48.1333 60.2182 48.3898 60.2761 48.647C60.3351 48.9098 60.3364 49.174 60.2794 49.4342C60.2088 49.7569 59.9996 49.9765 59.7307 50.1327C59.4646 50.2871 59.1813 50.3826 58.8679 50.37C58.7623 50.3658 58.6565 50.3641 58.5511 50.3542C58.5193 50.3511 58.4827 50.3592 58.4601 50.3245C58.5412 50.2837 58.6302 50.2703 58.7166 50.2494C58.9655 50.1891 59.2094 50.1064 59.4411 50.0009C59.8762 49.8029 60.1 49.4108 60.0283 48.8607C60.0098 48.7183 59.9748 48.5781 59.9536 48.436C59.9067 48.12 59.986 47.8321 60.1431 47.563L60.1429 47.5628Z" fill="#EEA942"/>
<path d="M61.2405 77.4217C61.2438 77.4249 61.2471 77.4279 61.2503 77.4311C61.248 77.433 61.2458 77.4351 61.2435 77.437C61.2413 77.433 61.2391 77.4289 61.2367 77.4249L61.2403 77.4219L61.2405 77.4217Z" fill="#FEFEFE"/>
<path d="M68.3599 79.3235C68.3633 79.3266 68.3667 79.3296 68.3702 79.3327C68.3679 79.3346 68.3656 79.3368 68.3634 79.3387C68.3612 79.3345 68.3589 79.3305 68.3569 79.3263L68.3599 79.3235Z" fill="#FEFEFE"/>
<path d="M54.1776 60.5411C54.1929 60.3419 54.2582 60.1533 54.2963 59.959C54.3619 59.6241 54.446 59.293 54.5436 58.9659C54.74 58.3082 54.9785 57.6714 55.3251 57.0787C55.4629 56.843 55.5437 56.5715 55.6524 56.3174C55.8163 55.9344 55.9628 55.5421 56.1636 55.1776C56.3233 54.8876 56.5042 54.6101 56.6711 54.3243C56.8929 53.9442 56.9233 53.5571 56.7304 53.1475C56.5707 52.8085 56.6345 52.326 56.949 52.0573C57.2061 51.8376 57.4593 51.6169 57.7869 51.5147C58.1022 51.4163 58.425 51.3647 58.7514 51.3319C59.231 51.2838 59.7134 51.2859 60.1933 51.2468C60.5725 51.2158 60.9381 51.1407 61.2677 50.923C61.5549 50.7333 61.7855 50.4881 61.9864 50.2072C62.2118 49.8922 62.3954 49.5487 62.6102 49.2264C62.9251 48.7542 63.291 48.3382 63.7933 48.0758C64.245 47.8398 64.7228 47.701 65.2309 47.6771C65.7155 47.6545 66.1586 47.7723 66.5577 48.065C66.8176 48.2556 67.0797 48.4433 67.3473 48.622C67.7232 48.8728 68.1307 49.0547 68.5672 49.1553C69.0409 49.2646 69.5191 49.2826 69.9938 49.1581C70.249 49.0912 70.4807 48.9684 70.7004 48.8151C70.9208 48.6612 71.1137 48.4697 71.3382 48.3237C71.6929 48.0933 72.0879 47.9833 72.5 47.9334C72.8372 47.8927 73.1751 47.9002 73.5097 47.9533C73.8393 48.0057 74.1647 48.0819 74.4802 48.1981C74.6046 48.244 74.7291 48.2897 74.8544 48.3333C74.8864 48.3444 74.9177 48.3536 74.9394 48.3825C74.9444 48.4036 74.9607 48.408 74.9782 48.4104L74.9773 48.4098C75.0899 48.4939 75.2007 48.5808 75.3158 48.6613C75.385 48.7099 75.4459 48.767 75.5035 48.8285C75.6581 48.9934 75.5789 49.2997 75.3613 49.3468C75.0535 49.4134 74.8741 49.6316 74.747 49.9001C74.63 50.1472 74.5626 50.4174 74.5464 50.6922C74.5004 51.4654 74.7116 52.1539 75.2204 52.7305C75.4929 53.0393 75.8302 53.246 76.2209 53.3544C76.31 53.3792 76.4023 53.3944 76.4941 53.4058C76.5712 53.4153 76.6459 53.4428 76.6839 53.5053C76.7564 53.6242 76.8673 53.7028 76.9502 53.8092C77.0759 53.9701 77.1738 54.15 77.2749 54.3273C77.6136 54.9219 77.8853 55.5498 78.1107 56.1985C78.2893 56.7133 78.4416 57.2375 78.5164 57.7807C78.5676 58.1538 78.5813 58.5304 78.5892 58.9075C78.5997 59.409 78.585 59.9088 78.5526 60.4094C78.5404 60.598 78.5376 60.7883 78.5113 60.9747C78.4595 61.3406 78.3901 61.7038 78.3338 62.0692C78.2382 62.6889 77.9705 63.2331 77.6599 63.7605C77.5916 63.8765 77.5106 63.9399 77.3742 63.9612C77.052 64.0116 76.8144 64.2136 76.6184 64.4724C76.3823 64.7841 76.2573 65.1476 76.1634 65.5257C76.0498 65.9822 76.051 66.4534 75.9933 66.9169C75.9528 67.2411 75.8868 67.5591 75.745 67.8541C75.5021 68.3599 75.1903 68.8118 74.7926 69.2025C74.4375 69.5517 74.0628 69.8768 73.6755 70.184C72.9467 70.7618 72.1632 71.25 71.3329 71.6563C70.6561 71.9875 69.958 72.2597 69.2377 72.4704C68.6762 72.6346 68.1067 72.7573 67.5288 72.8432C67.1429 72.9005 66.7556 72.9386 66.3672 72.9655C65.9954 72.9912 65.6265 72.9515 65.2597 72.8845C65.0803 72.8519 64.8979 72.8414 64.7178 72.8073C64.1902 72.7075 63.6835 72.5485 63.2091 72.2835C62.808 72.0596 62.4791 71.7519 62.1925 71.388C61.9932 71.135 61.8029 70.8741 61.5744 70.6459C61.2983 70.3701 60.9701 70.1877 60.6185 70.0471C60.0719 69.8285 59.5204 69.6234 58.9584 69.4507C58.6574 69.3582 58.3523 69.2788 58.0581 69.1639C57.4418 68.923 56.8703 68.6021 56.3826 68.1352C56.1929 67.9535 56.0536 67.7331 55.9187 67.5076C55.5446 66.8825 55.24 66.2224 54.9971 65.5323C54.6927 64.6673 54.4894 63.7769 54.3994 62.8597C54.3605 62.4644 54.2956 62.0729 54.2474 61.6791C54.2049 61.3331 54.1698 60.985 54.207 60.6345C54.2106 60.602 54.2353 60.5562 54.1781 60.5413L54.1776 60.5411ZM71.8998 61.3856C71.8978 61.4262 71.9165 61.4485 71.9552 61.4535C71.9748 61.4563 71.9921 61.461 72.009 61.4754C72.1851 61.6251 72.3743 61.7521 72.5859 61.8438C72.905 61.9822 73.2371 62.0787 73.579 62.1107C73.9794 62.1482 74.38 62.1278 74.7758 62.0262C75.2059 61.9158 75.5774 61.7087 75.8779 61.3713C76.013 61.2196 76.0851 61.0319 76.1212 60.8308C76.1941 60.4242 76.0122 60.1038 75.7732 59.817C75.5744 59.5783 75.3081 59.4213 75.0313 59.3C74.7108 59.1596 74.3701 59.0868 74.0227 59.0515C73.7895 59.0279 73.5557 59.0431 73.3222 59.0342C73.6375 58.7215 73.8781 58.3572 74.0403 57.9359C74.1551 57.6374 74.2147 57.3247 74.2481 57.0099C74.2738 56.767 74.2822 56.5182 74.2553 56.273C74.234 56.0768 74.2182 55.8787 74.1573 55.6894C74.1314 55.6223 74.123 55.5511 74.1142 55.4802C74.0093 54.6375 73.6741 53.9101 73.0971 53.3055C72.6098 52.795 72.0115 52.559 71.3268 52.6033C70.6933 52.6443 70.1634 52.9367 69.7547 53.4425C69.3617 53.9285 69.1609 54.5089 69.0622 55.1239C69.007 55.4681 68.981 55.8187 68.9956 56.1716C69.0053 56.4054 69.0403 56.6322 69.0925 56.8577C69.1016 56.8971 69.0979 56.9649 69.1732 56.9267C69.2994 57.4727 69.5177 57.9739 69.8487 58.4204C69.8445 58.4539 69.8625 58.4781 69.8772 58.5057C69.9335 58.6127 70.024 58.6932 70.0848 58.7951C70.2076 59.0008 70.381 59.1437 70.5826 59.2572C70.9523 59.4654 71.3491 59.5724 71.7662 59.6075C71.7588 59.654 71.7176 59.6704 71.6898 59.6985C71.6115 59.778 71.5387 59.8616 71.4903 59.9654C71.2954 60.384 71.4071 60.7596 71.642 61.1163C71.6704 61.1594 71.6948 61.2145 71.7548 61.2258L71.7545 61.2255C71.7551 61.2756 71.7794 61.3057 71.8265 61.3162L71.8262 61.3158C71.8236 61.3699 71.8568 61.3835 71.8999 61.386L71.8996 61.386L71.8998 61.3856ZM61.8978 51.9395L61.8794 51.916C61.8538 51.8953 61.8253 51.8775 61.8033 51.8534C61.598 51.6294 61.3629 51.4807 61.0507 51.4755C60.8698 51.4724 60.7295 51.5462 60.6039 51.66C60.4196 51.8269 60.3316 52.0562 60.2627 52.291C60.1977 52.5124 60.1734 52.7456 60.0809 52.9599C60.0616 53.0045 60.061 53.0638 60.1231 53.0906C60.1143 53.1543 60.167 53.2043 60.1997 53.2064C60.2694 53.211 60.3467 53.211 60.4061 53.1456C60.573 52.962 60.7506 52.7916 60.9832 52.6984C61.003 52.6995 61.0249 52.7069 61.0422 52.7007C61.4025 52.5733 61.7503 52.6518 62.0974 52.7636C62.1642 52.7852 62.2352 52.7978 62.2897 52.7298C62.3449 52.6609 62.3835 52.5874 62.3432 52.4947C62.316 52.4321 62.295 52.366 62.2617 52.3074C62.1728 52.1505 62.0833 51.9924 61.8967 51.9383L61.8979 51.9395L61.8978 51.9395ZM69.6299 51.8023C69.6573 51.911 69.733 51.9656 69.8324 51.9873C69.933 52.0093 70.0297 51.9757 70.1252 51.9498C70.2934 51.9041 70.4636 51.8715 70.6354 51.9057C70.8368 51.9455 71.0336 51.999 71.2078 52.1253C71.2988 52.1912 71.4071 52.2344 71.5116 52.2773C71.6321 52.3267 71.7036 52.2928 71.7262 52.1891C71.7588 52.0926 71.7222 52.0084 71.6826 51.9246C71.7169 51.852 71.6715 51.7933 71.6459 51.735C71.5871 51.6009 71.5229 51.4699 71.4411 51.3476C71.2247 51.0239 70.9668 50.7592 70.5927 50.6366C70.2631 50.5286 69.934 50.62 69.755 50.901C69.6126 51.1246 69.5652 51.3815 69.5733 51.648C69.5749 51.7032 69.5645 51.769 69.6295 51.8021L69.6299 51.8023ZM64.8639 50.0114C64.9512 50.1316 65.0623 50.2207 65.1944 50.2825C65.4738 50.4131 65.7761 50.4463 66.0688 50.4135C66.5349 50.3611 66.9177 50.1336 67.1474 49.6852C67.2594 49.4666 67.2847 49.2386 67.2149 48.9992C67.1317 48.7138 66.9422 48.5281 66.6997 48.3879C66.3903 48.2092 66.0615 48.1613 65.7151 48.2256C65.5141 48.2346 65.3144 48.2474 65.1199 48.31C64.8426 48.3997 64.5965 48.5334 64.4125 48.777C64.1887 49.0735 64.1838 49.4239 64.4261 49.7029C64.5479 49.8431 64.7003 49.9354 64.8637 50.0113L64.8639 50.0114ZM58.3548 66.0096C58.348 66.201 58.385 66.3833 58.4634 66.5567C58.6174 66.8977 58.9714 67.0417 59.28 66.8928C59.4136 66.8283 59.4926 66.7127 59.566 66.5895C59.6265 66.5791 59.6367 66.5226 59.6565 66.4782C59.8119 66.127 59.7156 65.577 59.4249 65.3205C59.3082 65.2176 59.177 65.1311 59.0273 65.1264C58.4854 65.1094 58.267 65.5983 58.3548 66.0094L58.3548 66.0096ZM66.2074 60.2789C66.2119 60.3088 66.2335 60.3132 66.2575 60.3194C66.3996 60.3559 66.5446 60.371 66.6899 60.3837C67.2084 60.4293 67.6553 60.2536 68.0345 59.8953C68.183 59.7551 68.3279 59.6002 68.3194 59.363C68.314 59.2109 68.2958 59.0602 68.239 58.9202C68.2002 58.8242 68.155 58.724 68.0444 58.6886C67.8831 58.5431 67.7095 58.4219 67.5002 58.3588C67.2474 58.2828 66.9861 58.2331 66.7451 58.1198C66.5053 58.0071 66.2453 57.9329 66.0461 57.7386C66.0081 57.7016 65.9614 57.7067 65.9174 57.7367C65.8343 57.7934 65.8318 57.9149 65.92 57.9917C65.9746 58.0392 66.0392 58.0741 66.1094 58.1214C65.9416 58.1945 65.7728 58.2388 65.6026 58.2788C65.4695 58.3101 65.3383 58.3452 65.2256 58.4315C64.9813 58.6181 64.8939 59.019 65.0286 59.3504C65.2478 59.8896 65.6756 60.159 66.2075 60.2789L66.2074 60.2789ZM64.6205 66.3838C64.6195 66.4053 64.634 66.4116 64.6503 66.4162C64.8719 66.7043 65.1132 66.973 65.3808 67.2158C65.3747 67.2537 65.4025 67.2687 65.4244 67.29C65.6265 67.4862 65.8508 67.6514 66.0887 67.7967C66.5518 68.08 67.0546 68.214 67.5894 68.1808C68.0516 68.1521 68.4632 67.9638 68.8295 67.6728C69.3616 67.2501 69.7243 66.6925 70.0036 66.0702C70.3287 65.3456 70.5035 64.5766 70.6089 63.7904C70.6499 63.4847 70.6741 63.1757 70.6844 62.8652C70.6955 62.5327 70.7043 62.2011 70.6913 61.8691C70.6795 61.5615 70.6645 61.2536 70.6166 60.9495C70.5981 60.832 70.5554 60.7219 70.4194 60.6969C70.391 60.6333 70.3579 60.5737 70.2948 60.5398C70.2818 60.3875 70.1685 60.3364 70.009 60.4118C69.5388 60.6341 69.0493 60.7906 68.5382 60.8712C68.0649 60.9459 67.5898 61.0006 67.1116 61.0353C66.8529 61.054 66.5933 61.0458 66.3336 61.0876C66.0908 61.1265 65.8388 61.089 65.5914 61.0644C65.46 61.0514 65.3269 61.0447 65.195 61.0495C64.9778 61.0576 64.7582 61.0443 64.5521 60.9919C64.0944 60.8753 63.6271 60.8003 63.1758 60.6556C63.1338 60.6421 63.087 60.64 63.0578 60.6842C62.9615 60.8295 62.8917 60.983 62.8772 61.1647C62.85 61.5054 62.8895 61.8422 62.9229 62.1785C62.9563 62.513 63.0383 62.839 63.1264 63.1639C63.2141 63.4874 63.277 63.8185 63.3882 64.1352C63.579 64.6782 63.7905 65.2115 64.0758 65.7107C64.2 65.9279 64.3523 66.1221 64.5102 66.3125C64.5382 66.3462 64.5689 66.3896 64.6235 66.3853L64.6206 66.3839L64.6205 66.3838ZM63.9326 55.7175C63.9251 55.6876 63.9014 55.6612 63.9149 55.6269C63.9293 55.5774 63.9132 55.5307 63.8994 55.4855C63.7501 54.9975 63.5056 54.5678 63.146 54.2161C62.6618 53.7425 62.0998 53.4795 61.4166 53.5523C60.8409 53.6134 60.3605 53.8691 59.9576 54.2925C59.6994 54.5638 59.504 54.8777 59.3493 55.2231C59.1988 55.5589 59.1003 55.9098 59.0489 56.2734C59.0037 56.593 59.0006 56.9166 59.042 57.2375C59.0525 57.3184 59.0228 57.4207 59.1127 57.48C59.1177 57.4994 59.1242 57.5186 59.1273 57.5384C59.1548 57.7035 59.1761 57.8698 59.2185 58.032C59.2142 58.0407 59.2048 58.0506 59.2065 58.0576C59.2638 58.2906 59.3177 58.5249 59.4043 58.7486C59.5607 59.1531 59.8026 59.4899 60.1462 59.7448C60.0927 59.7393 60.0391 59.7335 59.9855 59.728C59.9636 59.7067 59.9467 59.6701 59.9081 59.7014L59.8693 59.6975C59.843 59.661 59.8029 59.6709 59.7681 59.6669C59.4485 59.6311 59.1292 59.6288 58.8096 59.6727C58.2395 59.7511 57.7305 59.9502 57.3761 60.4516C57.1925 60.7112 57.1046 60.9965 57.191 61.3198C57.1974 61.5997 57.3028 61.8453 57.4899 62.0336C57.768 62.3131 58.1116 62.4758 58.4935 62.5572C58.7471 62.6113 59.0022 62.6254 59.2577 62.6153C59.5332 62.6047 59.8034 62.5501 60.0689 62.4664C60.4801 62.3367 60.8537 62.1433 61.156 61.8198C61.2869 61.68 61.3769 61.5084 61.4527 61.3349C61.4994 61.228 61.4948 61.0978 61.4999 60.9741C61.5082 60.7716 61.4426 60.606 61.3414 60.441C61.2884 60.3546 61.187 60.3104 61.1636 60.2031C61.2727 60.2136 61.3821 60.2218 61.4911 60.2347C61.7835 60.2692 62.0656 60.2195 62.3395 60.1184C62.8157 59.9426 63.1958 59.6318 63.4993 59.2155C63.7215 58.9107 63.8864 58.5729 63.9915 58.2096C64.089 57.8728 64.1559 57.5287 64.1598 57.1709C64.1624 56.9343 64.1648 56.6987 64.139 56.4642C64.1125 56.2253 64.0611 55.9908 63.9905 55.7616C63.9842 55.7409 63.997 55.6672 63.9326 55.7171L63.9326 55.7175ZM57.073 64.5097C57.0757 64.5115 57.0783 64.5135 57.0808 64.5153C57.0781 64.5135 57.0755 64.5115 57.0729 64.5097C57.0687 64.4934 57.0678 64.4751 57.0598 64.4612C56.8296 64.0544 56.6546 63.6195 56.4619 63.1938C56.3519 62.9508 56.2903 62.6884 56.2007 62.437C56.1132 62.1915 56.0713 61.9332 56.0153 61.6792C55.9323 61.3035 55.9781 60.9269 56.0207 60.5513C56.0405 60.3768 56.0932 60.2113 56.1661 60.0517C56.2777 59.8075 56.4589 59.6224 56.6347 59.43C57.0202 59.0081 57.5005 58.825 58.0491 58.809C58.1313 58.8066 58.1551 58.7826 58.1322 58.6993C58.0622 58.445 57.994 58.1905 57.9467 57.9299C57.8337 57.3076 57.7965 56.6868 57.9212 56.0602C58.0006 55.661 58.1254 55.2806 58.3032 54.918C58.3661 54.7894 58.429 54.6605 58.4949 54.5337C58.5174 54.4905 58.5056 54.4603 58.4745 54.4346C58.434 54.4011 58.4144 54.4368 58.398 54.4666C58.2992 54.6466 58.164 54.8009 58.06 54.9763C57.8444 55.3398 57.6889 55.7361 57.5056 56.1168C57.308 56.5274 57.2363 56.989 57.0981 57.4246C57.028 57.6457 56.9612 57.7611 56.7636 57.7767C56.4369 57.8021 56.1808 57.9759 55.9398 58.1753C55.6669 58.4014 55.4705 58.6957 55.3213 59.0221C55.192 59.305 55.1058 59.6028 55.0335 59.9069C54.9478 60.2669 54.9117 60.6316 54.9201 60.9994C54.9341 61.6189 55.1438 62.1633 55.5365 62.6333C55.7281 62.8626 55.9075 63.1026 56.096 63.3345C56.2286 63.4975 56.3521 63.668 56.496 63.822C56.5964 63.9297 56.6953 64.0399 56.7797 64.1654C56.8634 64.2896 56.9438 64.4241 57.0734 64.5096L57.073 64.5097ZM72.5473 67.3286C72.5427 67.3782 72.5368 67.4093 72.5374 67.44C72.5401 67.5834 72.5923 67.703 72.7124 67.7789C72.8243 67.8497 72.9381 67.8391 73.0508 67.7705C73.2265 67.6636 73.3289 67.3162 73.2391 67.1192C73.1151 66.8469 72.8249 66.8138 72.6463 67.0515C72.5809 67.1383 72.5433 67.2357 72.5472 67.3286L72.5473 67.3286Z" fill="#EEA942"/>
<path d="M78.1408 64.7386C78.1654 64.7692 78.1899 64.7995 78.2142 64.83C78.2708 64.9103 78.3236 64.9929 78.3524 65.089C78.4922 65.5547 78.4589 66.0134 78.2579 66.4475C78.0675 66.8588 77.7837 67.1596 77.2939 67.1321C77.0648 67.0895 76.9126 66.9412 76.7968 66.7427C76.7893 66.7346 76.7817 66.7266 76.7744 66.7184L76.7759 66.7195C76.6939 66.5025 76.6533 66.275 76.66 66.0448C76.6738 65.576 76.8167 65.1556 77.1474 64.8209C77.3345 64.6316 77.56 64.5493 77.8232 64.5789C77.9289 64.5907 78.0107 64.6574 78.1058 64.693L78.1052 64.6917C78.1017 64.7084 78.1113 64.7135 78.1244 64.7158L78.1229 64.7145C78.1287 64.7225 78.1346 64.7305 78.1405 64.7384L78.1408 64.7386Z" fill="#451611"/>
<path d="M75.8402 50.083C76.0222 50.1788 76.1431 50.3367 76.247 50.5122C76.3198 50.7134 76.387 50.9162 76.4244 51.1283C76.4524 51.287 76.4528 51.4472 76.4529 51.6081C76.453 51.8362 76.436 52.0585 76.3327 52.2676C76.1857 52.5651 75.8101 52.7301 75.5319 52.4995C75.5173 52.4874 75.4962 52.484 75.478 52.4765C75.3041 52.2947 75.1945 52.0743 75.1176 51.834C75.1182 51.8238 75.1217 51.8124 75.1188 51.8033C74.993 51.4151 74.9751 51.0232 75.0709 50.6247C75.1757 50.189 75.4423 49.9994 75.8399 50.0833L75.8402 50.083Z" fill="#451611"/>
<path d="M61.3425 71.8407C61.0336 72.0714 60.6874 71.8775 60.5082 71.6048C60.4488 71.5144 60.3964 71.4198 60.3589 71.3154C60.3106 71.1809 60.2782 71.0469 60.3036 70.903C60.323 70.7964 60.3059 70.6829 60.3739 70.5856C60.5298 70.3625 60.8253 70.3334 61.0606 70.5377C61.3401 70.7803 61.488 71.093 61.4761 71.478C61.4793 71.6179 61.409 71.7285 61.3425 71.8407Z" fill="#7B381B"/>
<path d="M77.2938 67.1324C77.7836 67.1598 78.0673 66.859 78.2578 66.4478C78.4588 66.0136 78.4921 65.5549 78.3523 65.0892C78.3235 64.9931 78.2706 64.9105 78.2141 64.8302C78.2189 64.7414 78.2611 64.7778 78.2948 64.8068C78.4715 64.9591 78.5787 65.1549 78.6394 65.3838C78.7975 65.9799 78.631 66.5023 78.2669 66.9534C78.0642 67.2042 77.7134 67.3227 77.3786 67.194C77.3469 67.1819 77.3044 67.1787 77.2939 67.1324L77.2938 67.1324Z" fill="#8B5028"/>
<path d="M72.1212 72.0995C72.1097 72.1878 72.1221 72.2763 72.1198 72.3648C72.1139 72.5856 71.922 72.7258 71.712 72.7181C71.507 72.7106 71.3609 72.6145 71.2918 72.4077C71.2918 72.3973 71.2929 72.3869 71.2916 72.3768C71.2579 72.1297 71.3972 71.8985 71.6229 71.827C71.8455 71.7563 72.0064 71.8444 72.1211 72.0995L72.1212 72.0995Z" fill="#7B381B"/>
<path d="M75.4786 52.4758C75.4966 52.4833 75.5179 52.4868 75.5325 52.4988C75.8107 52.7294 76.1861 52.5645 76.3332 52.2669C76.4365 52.0579 76.4535 51.8355 76.4535 51.6074C76.4534 51.4467 76.453 51.2863 76.425 51.1276C76.3876 50.9155 76.3203 50.7126 76.2476 50.5114C76.3403 50.5614 76.3709 50.6627 76.4141 50.747C76.6436 51.1955 76.755 51.6702 76.67 52.1795C76.6292 52.4245 76.5391 52.6413 76.3122 52.7664C76.0822 52.8932 75.7822 52.795 75.5936 52.6238C75.5482 52.5826 75.4846 52.5518 75.4787 52.4757L75.4786 52.4758Z" fill="#8B5028"/>
<path d="M61.4759 71.4782C61.4879 71.0932 61.34 70.7805 61.0604 70.5379C60.8252 70.3338 60.5297 70.3627 60.3738 70.5858C60.3058 70.6831 60.3229 70.7966 60.3034 70.9032C60.268 70.8762 60.2822 70.8264 60.2568 70.7948C60.2749 70.4735 60.3933 70.3113 60.6645 70.2693C60.8929 70.2339 61.0919 70.3092 61.2319 70.5063C61.3782 70.7125 61.4976 70.9338 61.5104 71.1987C61.515 71.2933 61.5186 71.3891 61.4761 71.4781L61.4759 71.4782Z" fill="#F6BC4A"/>
<path d="M75.8405 50.0823C75.4431 49.9987 75.1764 50.1881 75.0716 50.6238C74.9758 51.0222 74.9937 51.4142 75.1194 51.8024C75.1224 51.8115 75.1187 51.8228 75.1182 51.8331C75.0356 51.7673 75.0222 51.6628 74.9987 51.5715C74.8868 51.1361 74.9043 50.708 75.1055 50.3005C75.1777 50.154 75.2843 50.036 75.4361 49.9725C75.5832 49.9107 75.7149 49.9539 75.8381 50.0427C75.8532 50.0535 75.8612 50.0676 75.8405 50.0822L75.8405 50.0823Z" fill="#F6BC4A"/>
<path d="M78.1059 64.6933C78.0108 64.6576 77.929 64.5911 77.8232 64.5792C77.5601 64.5497 77.3346 64.6319 77.1475 64.8213C76.8167 65.156 76.6738 65.5763 76.6601 66.0451C76.6533 66.2753 76.6939 66.5029 76.776 66.7198C76.7102 66.6907 76.7091 66.6207 76.6934 66.5651C76.6097 66.2668 76.6121 65.968 76.6684 65.6616C76.7284 65.3356 76.844 65.0416 77.0571 64.7962C77.3291 64.4831 77.6264 64.4208 77.9896 64.5791C78.0394 64.6008 78.0941 64.6261 78.1059 64.6935L78.1059 64.6933Z" fill="#F6BC4A"/>
<path d="M72.1214 72.0996C72.0068 71.8445 71.8458 71.7565 71.6232 71.827C71.3975 71.8986 71.2584 72.1298 71.2919 72.3769C71.2933 72.387 71.2921 72.3974 71.2922 72.4077C71.2224 72.3698 71.212 72.2949 71.2176 72.2316C71.2341 72.0446 71.3057 71.8866 71.4629 71.7741C71.6713 71.6247 71.9852 71.699 72.0934 71.9306C72.1187 71.9846 72.1298 72.04 72.1214 72.0996Z" fill="#F6BC4A"/>
<path d="M78.1411 64.7391C78.1351 64.731 78.1291 64.7229 78.1232 64.7148C78.1309 64.7216 78.162 64.7097 78.1411 64.7391Z" fill="#F6BC4A"/>
<path d="M76.7744 66.7188C76.7821 66.727 76.7897 66.7351 76.7972 66.7433C76.7896 66.7351 76.7819 66.727 76.7744 66.7188Z" fill="#F6BC4A"/>
<path d="M78.1245 64.7164C78.1113 64.714 78.1014 64.7088 78.1051 64.6919C78.1116 64.7001 78.1181 64.7082 78.1245 64.7164Z" fill="#F6BC4A"/>
<path d="M77.2572 68.1359C77.6032 68.1633 77.823 68.4975 77.8803 68.8299C77.9298 69.1181 77.9501 69.4103 77.8968 69.6981C77.8067 70.184 77.6138 70.6134 77.163 70.8483C76.8414 71.0159 76.4414 70.9406 76.2407 70.5569C76.1585 70.3998 76.1283 70.2295 76.0824 70.0625C76.0899 69.9709 76.0664 69.8801 76.0694 69.7899C76.084 69.3408 76.1966 68.9231 76.467 68.563C76.6669 68.2969 76.9153 68.1221 77.2571 68.1357L77.2572 68.1359Z" fill="#451611"/>
<path d="M77.257 68.1359C76.9152 68.1223 76.6668 68.2971 76.4669 68.5632C76.1965 68.9235 76.0839 69.341 76.0693 69.7901C76.0663 69.8801 76.0899 69.9711 76.0823 70.0627C76.0174 69.9633 76.0293 69.8484 76.0322 69.7398C76.0479 69.1463 76.2423 68.636 76.7086 68.2664C76.8676 68.1404 77.0505 68.0718 77.257 68.1359Z" fill="#EEA942"/>
<path d="M74.9791 48.4103C74.9615 48.4079 74.9452 48.4035 74.9402 48.3823C74.9556 48.388 74.9735 48.39 74.9791 48.4103Z" fill="#B77C3B"/>
<path d="M57.0735 64.5099C56.9439 64.4246 56.8634 64.2899 56.7798 64.1657C56.6952 64.0402 56.5965 63.93 56.4961 63.8224C56.3522 63.6684 56.2287 63.4978 56.0961 63.3348C55.9076 63.1029 55.7282 62.8628 55.5366 62.6336C55.1439 62.1637 54.9342 61.6191 54.9202 60.9997C54.9118 60.6321 54.948 60.2673 55.0336 59.9072C55.106 59.6031 55.1923 59.3056 55.3214 59.0225C55.4706 58.6958 55.667 58.4016 55.9399 58.1757C56.1809 57.9761 56.4372 57.8025 56.7637 57.777C56.9612 57.7616 57.0283 57.646 57.0982 57.4249C57.2363 56.9893 57.3079 56.5279 57.5057 56.1172C57.6891 55.7365 57.8445 55.3401 58.0601 54.9766C58.1643 54.8011 58.2995 54.647 58.3981 54.467C58.4145 54.4371 58.4339 54.4014 58.4746 54.4349C58.5057 54.4606 58.5174 54.4909 58.495 54.534C58.4289 54.6609 58.3662 54.7898 58.3033 54.9183C58.1255 55.281 58.0007 55.6614 57.9212 56.0606C57.7964 56.6871 57.8336 57.3079 57.9468 57.9302C57.9941 58.1908 58.0623 58.4452 58.1323 58.6996C58.1552 58.7828 58.1314 58.8069 58.0492 58.8093C57.5006 58.8253 57.0203 59.0082 56.6348 59.4303C56.459 59.6227 56.2778 59.8078 56.1662 60.0521C56.0934 60.2116 56.0406 60.3772 56.0208 60.5517C55.9782 60.9271 55.9324 61.3039 56.0153 61.6795C56.0714 61.9335 56.1132 62.1918 56.2008 62.4374C56.2904 62.6888 56.352 62.9511 56.4619 63.1941C56.6547 63.6198 56.8297 64.0548 57.0599 64.4616C57.0679 64.4756 57.0687 64.4938 57.0729 64.51L57.0735 64.5099Z" fill="#FABF4C"/>
<path d="M73.3227 59.0342C73.5561 59.0431 73.79 59.0277 74.0231 59.0515C74.3705 59.0868 74.7111 59.1594 75.0318 59.3001C75.3086 59.4213 75.5749 59.5783 75.7737 59.817C76.0125 60.1039 76.1945 60.4243 76.1217 60.8309C76.0856 61.0321 76.0133 61.2196 75.8783 61.3714C75.5779 61.7088 75.2063 61.9159 74.7763 62.0262C74.3804 62.1278 73.9799 62.1483 73.5794 62.1108C73.2377 62.0788 72.9055 61.9821 72.5863 61.8438C72.3747 61.7522 72.1856 61.6251 72.0095 61.4755C71.9926 61.461 71.9752 61.4564 71.9554 61.4535C71.9554 61.4148 71.9382 61.3911 71.9001 61.3857L71.9004 61.3857C71.8859 61.3512 71.8664 61.3219 71.8267 61.3157L71.827 61.316C71.8254 61.2665 71.8016 61.2362 71.755 61.2254L71.7553 61.2257C71.7687 61.2028 71.7707 61.1853 71.7466 61.1643C71.6762 61.1029 71.6318 61.0112 71.6025 60.9324C71.5517 60.795 71.5147 60.651 71.5142 60.4913C71.5133 60.1554 71.6604 59.9077 71.8721 59.6818C71.9661 59.5816 72.0962 59.5285 72.1839 59.4207C72.2429 59.3876 72.3194 59.3841 72.3556 59.3122C72.3735 59.3164 72.3874 59.3113 72.3969 59.2945C72.4654 59.2663 72.5338 59.2379 72.6022 59.2097C72.6109 59.2054 72.6195 59.2013 72.6282 59.197L72.6299 59.1961C72.6529 59.1953 72.6776 59.2002 72.6984 59.1929C72.8941 59.1227 73.0978 59.0908 73.3003 59.0525L73.3234 59.0341L73.3228 59.0346L73.3227 59.0342ZM71.8412 60.2966C71.8028 60.5577 71.923 60.7649 72.1466 60.921C72.3576 61.0683 72.5963 61.0671 72.8286 61.0301C73.1821 60.9737 73.4767 60.795 73.7094 60.5065C73.9321 60.2303 74.0203 59.8165 73.706 59.5302C73.5129 59.3544 73.2829 59.2895 73.0379 59.3034C72.7142 59.3218 72.42 59.4348 72.1778 59.6704C72.0079 59.8356 71.8697 60.0184 71.8412 60.2966Z" fill="#F2956E"/>
<path d="M59.8694 59.6976C59.8824 59.6989 59.8952 59.7002 59.9082 59.7015C59.927 59.7325 59.9579 59.7251 59.9856 59.728C60.0392 59.7336 60.0927 59.7393 60.1463 59.7449C60.2641 59.7488 60.3691 59.8039 60.4802 59.8344C60.5868 59.8635 60.6865 59.9128 60.7829 59.9675C60.9125 60.0413 61.0283 60.1396 61.1636 60.2037C61.1871 60.3108 61.2885 60.3552 61.3414 60.4414C61.4426 60.6064 61.5083 60.772 61.5 60.9745C61.4949 61.0982 61.4994 61.2284 61.4528 61.3353C61.377 61.5088 61.287 61.6802 61.1561 61.8202C60.8536 62.1435 60.4802 62.3371 60.0689 62.4668C59.8033 62.5505 59.5333 62.6049 59.2577 62.6157C59.0023 62.6256 58.7471 62.6117 58.4936 62.5576C58.1117 62.4762 57.7679 62.3134 57.49 62.034C57.3028 61.8459 57.1974 61.6003 57.1911 61.3202C57.2135 60.997 57.3555 60.7261 57.5518 60.4874C57.7197 60.2836 57.9556 60.1676 58.1714 60.0278C58.2952 59.9475 58.44 59.9202 58.5751 59.8695C58.703 59.8216 58.8353 59.7785 58.9693 59.7576C59.2669 59.7108 59.5676 59.6893 59.8693 59.6979L59.8694 59.6976ZM58.7696 60.0637C58.663 60.0344 58.532 60.0621 58.4123 60.0985C58.2245 60.1556 58.044 60.2336 57.8822 60.3625C57.6298 60.5634 57.4296 60.7817 57.3832 61.1305C57.3566 61.3298 57.4208 61.4736 57.5365 61.6106C57.6267 61.7174 57.7518 61.7405 57.8787 61.7739C58.0625 61.8222 58.2417 61.8075 58.4164 61.7592C58.5864 61.7121 58.745 61.6293 58.8923 61.5244C59.1193 61.3626 59.3051 61.167 59.3888 60.8879C59.458 60.6566 59.4457 60.4369 59.2714 60.2521C59.1402 60.113 58.9681 60.0862 58.7698 60.0637L58.7696 60.0637Z" fill="#F2956E"/>
<path d="M72.6023 59.2089C72.5338 59.2371 72.4654 59.2655 72.3969 59.2937C72.3804 59.2928 72.3637 59.2911 72.3556 59.3114C72.3457 59.311 72.3351 59.3077 72.326 59.3102C71.993 59.4054 71.6603 59.4235 71.3171 59.356C70.9941 59.2923 70.7054 59.1603 70.4348 58.9753C70.2114 58.8224 70.0298 58.6216 69.8493 58.4199C69.5183 57.9734 69.3002 57.4722 69.1738 56.9261C69.1717 56.9022 69.1725 56.8777 69.1672 56.8546C69.1077 56.5969 69.0815 56.3321 69.0954 56.0713C69.1128 55.7435 69.134 55.4142 69.2171 55.0916C69.3558 54.5525 69.5904 54.0725 69.9707 53.6748C70.6524 52.9618 71.5738 52.7781 72.4376 53.2076C73.4849 53.7284 73.9488 54.6803 74.11 55.8254C74.1492 56.0768 74.1432 56.3301 74.1321 56.5824C74.1203 56.8465 74.0704 57.1057 74.0019 57.3606C73.8219 58.031 73.487 58.5931 72.9328 59.0001C72.8361 59.0713 72.7312 59.1306 72.6301 59.1954L72.6283 59.1962C72.6196 59.2005 72.6111 59.2047 72.6024 59.209L72.6023 59.2089ZM69.3509 56.2654L69.348 56.2662C69.3555 56.5986 69.4205 56.9202 69.5246 57.2334C69.7374 57.8728 70.0819 58.4139 70.6351 58.7909C71.0114 59.0474 71.4236 59.1785 71.8785 59.1231C72.4243 59.0565 72.8609 58.781 73.2082 58.3495C73.6715 57.7738 73.8644 57.0939 73.8907 56.3572C73.8965 56.1947 73.8897 56.0287 73.8571 55.8669C73.8444 55.685 73.8057 55.5079 73.7568 55.334C73.7107 55.1703 73.6783 54.9996 73.5774 54.8575C73.5801 54.8141 73.5613 54.778 73.5437 54.7406C73.3974 54.4286 73.2124 54.1449 72.9705 53.9036C72.5765 53.5106 72.1236 53.2519 71.5613 53.2432C71.3339 53.2398 71.1123 53.2717 70.9002 53.3587C70.1931 53.6492 69.7721 54.2104 69.5215 54.9316C69.4284 55.1946 69.3717 55.4665 69.3412 55.7444C69.3244 55.8969 69.3372 56.05 69.3409 56.2029C69.3369 56.2252 69.3281 56.2482 69.351 56.2658L69.3509 56.2654Z" fill="#21120C"/>
<path d="M63.9152 55.6273C63.9017 55.6616 63.9254 55.688 63.9329 55.7179C64.0606 56.1302 64.1061 56.5552 64.0893 56.9848C64.0726 57.412 63.989 57.8284 63.835 58.2268C63.6372 58.7385 63.3427 59.1802 62.9213 59.5196C62.4317 59.9139 61.882 60.0951 61.2554 60.0068C61.0021 59.9712 60.7627 59.9039 60.538 59.7829C60.0094 59.4982 59.6485 59.0516 59.3958 58.5008C59.3259 58.3485 59.2868 58.1846 59.2188 58.0321C59.1764 57.8699 59.155 57.7036 59.1276 57.5384C59.1243 57.5187 59.1178 57.4994 59.113 57.48C59.1144 57.4561 59.1204 57.4312 59.1162 57.4083C59.0814 57.2116 59.0922 57.0122 59.0997 56.8155C59.113 56.4583 59.1795 56.1075 59.2958 55.7708C59.5516 55.0293 59.9757 54.4249 60.665 54.0583C61.2896 53.726 61.9312 53.7236 62.5689 54.0176C63.0767 54.2517 63.4341 54.6553 63.7009 55.1531C63.7831 55.3064 63.8361 55.473 63.9154 55.6272L63.9152 55.6273ZM63.6946 55.8427C63.6939 55.8292 63.6959 55.8146 63.6918 55.8023C63.4813 55.1581 63.1294 54.6277 62.5424 54.2936C62.2513 54.1279 61.9381 54.0324 61.6035 54.0559C61.0541 54.0942 60.5932 54.3339 60.2059 54.7366C59.7889 55.17 59.5403 55.6944 59.411 56.2856C59.3751 56.4334 59.3505 56.5828 59.3465 56.7356C59.3182 56.9235 59.3349 57.1115 59.3521 57.2987C59.4177 58.0202 59.6598 58.6631 60.1657 59.1771C60.5164 59.5335 60.9332 59.7518 61.4352 59.7735C61.7719 59.7881 62.089 59.7113 62.3817 59.5486C63.2399 59.0715 63.6511 58.2769 63.8182 57.3202C63.8715 57.0154 63.8608 56.7057 63.823 56.398C63.7995 56.2083 63.7559 56.0237 63.6948 55.8432L63.6946 55.8427Z" fill="#21120C"/>
<path d="M70.2946 60.5398C70.3578 60.5739 70.3909 60.6333 70.4193 60.6969C70.5074 61.3313 70.5339 61.9682 70.5069 62.6089C70.4919 62.9638 70.4569 63.3157 70.4045 63.6664C70.363 63.9445 70.3084 64.2198 70.2394 64.4916C70.1171 64.9727 69.9496 65.437 69.7346 65.8823C69.4848 66.3994 69.1736 66.8694 68.7496 67.2512C68.2538 67.6976 67.6832 67.9435 67.0196 67.9163C66.5923 67.8988 66.2059 67.7358 65.8356 67.5253C65.6759 67.4345 65.5355 67.3138 65.3808 67.2156C65.113 66.9728 64.8719 66.7041 64.6503 66.416C64.6472 66.3985 64.636 66.3889 64.6205 66.3836L64.6234 66.3851C64.6096 66.3617 64.5977 66.3371 64.5821 66.3152C64.3402 65.9721 64.1343 65.6068 63.9595 65.2228C63.3567 63.8974 63.1184 62.4904 63.0928 61.0364C63.0904 60.9003 63.1719 60.8345 63.2917 60.871C63.7683 61.0164 64.254 61.1183 64.7465 61.1824C65.5258 61.2839 66.3083 61.3113 67.0926 61.2723C67.7499 61.2397 68.4017 61.1594 69.0442 61.0076C69.4793 60.9048 69.8955 60.7469 70.2946 60.54L70.2946 60.5398ZM69.2484 63.8008C69.2387 63.7824 69.2247 63.7762 69.2057 63.7844C69.1939 63.7807 69.1823 63.7769 69.1706 63.773C68.9682 63.6575 68.7422 63.6243 68.5206 63.5851C68.2388 63.5353 67.9518 63.5372 67.668 63.5648C66.8311 63.6459 66.0793 63.9438 65.46 64.5486C65.245 64.7586 65.0518 64.9915 64.9538 65.2906C64.9169 65.4034 64.9648 65.5687 65.0588 65.6497C65.1798 65.8811 65.354 66.0675 65.5319 66.2506C65.7025 66.4405 65.8974 66.5998 66.1094 66.7362C66.5081 66.9929 66.9335 67.1332 67.4089 67.0446C67.8815 66.9564 68.2554 66.6955 68.5668 66.3284C68.91 65.9237 69.1363 65.4515 69.3017 64.9448C69.3791 64.7075 69.4491 64.4682 69.4865 64.2197C69.4985 64.1669 69.5024 64.1134 69.5207 64.0608C69.5468 63.9858 69.5425 63.9147 69.4473 63.8841C69.3792 63.8623 69.3146 63.8289 69.2484 63.8008Z" fill="#1F100B"/>
<path d="M65.381 67.2159C65.5359 67.3141 65.6761 67.4349 65.8358 67.5256C66.2061 67.7359 66.5925 67.8991 67.0199 67.9167C67.6835 67.9438 68.254 67.6979 68.7498 67.2515C69.1738 66.8697 69.485 66.3997 69.7348 65.8826C69.9498 65.4373 70.1173 64.9731 70.2396 64.4919C70.3087 64.2201 70.3633 63.9447 70.4047 63.6667C70.4569 63.316 70.4921 62.9643 70.5071 62.6092C70.534 61.9685 70.5076 61.3316 70.4195 60.6972C70.5555 60.7222 70.5983 60.8325 70.6167 60.9498C70.6645 61.2539 70.6795 61.5618 70.6914 61.8694C70.7043 62.2015 70.6955 62.533 70.6845 62.8655C70.6742 63.176 70.6498 63.4849 70.6089 63.7907C70.5036 64.5769 70.3288 65.3459 70.0037 66.0705C69.7244 66.6928 69.3617 67.2504 68.8296 67.6731C68.4633 67.9641 68.0517 68.1524 67.5895 68.1811C67.0547 68.2143 66.5518 68.0803 66.0888 67.797C65.8511 67.6515 65.6266 67.4865 65.4245 67.2903C65.4026 67.269 65.3748 67.254 65.3808 67.2161L65.381 67.2159Z" fill="#B77C3B"/>
<path d="M70.2948 60.54C69.8958 60.7469 69.4797 60.9048 69.0444 61.0076C68.4018 61.1594 67.7501 61.2397 67.0928 61.2723C66.3085 61.3113 65.5259 61.284 64.7467 61.1824C64.2542 61.1183 63.7686 61.0164 63.292 60.871C63.1723 60.8345 63.0906 60.9003 63.093 61.0364C63.1188 62.4905 63.357 63.8974 63.9598 65.2228C64.1345 65.6068 64.3404 65.9723 64.5824 66.3152C64.5979 66.3373 64.6099 66.3619 64.6236 66.3851C64.5691 66.3894 64.5384 66.3459 64.5103 66.3121C64.3524 66.122 64.2001 65.9277 64.0759 65.7103C63.7907 65.2111 63.5791 64.6779 63.3883 64.1349C63.2771 63.8181 63.2143 63.487 63.1265 63.1635C63.0384 62.8387 62.9563 62.5126 62.923 62.1781C62.8896 61.8421 62.8499 61.505 62.8773 61.1644C62.8919 60.9825 62.9616 60.829 63.058 60.6838C63.0873 60.6396 63.1339 60.6419 63.1759 60.6553C63.6273 60.7998 64.0945 60.8748 64.5522 60.9915C64.7583 61.0441 64.9779 61.0572 65.1952 61.0491C65.327 61.0442 65.4601 61.051 65.5916 61.0641C65.8389 61.0886 66.0909 61.1263 66.3338 61.0873C66.5935 61.0456 66.853 61.0538 67.1117 61.035C67.5899 61.0003 68.065 60.9455 68.5383 60.8708C69.0495 60.7901 69.5389 60.6336 70.0091 60.4115C70.1686 60.3362 70.2819 60.3871 70.2949 60.5395L70.2948 60.54Z" fill="#F6BC4A"/>
<path d="M66.2078 60.2793C65.6759 60.1593 65.2481 59.8899 65.0289 59.3507C64.8942 59.0193 64.9816 58.6184 65.2258 58.4318C65.3386 58.3455 65.4698 58.3102 65.6029 58.2791C65.7731 58.2391 65.9419 58.195 66.1097 58.1217C66.0395 58.0744 65.9747 58.0395 65.9202 57.992C65.832 57.9154 65.8346 57.7937 65.9177 57.737C65.9617 57.707 66.0084 57.7019 66.0464 57.7389C66.2458 57.9332 66.5056 58.0074 66.7454 58.1201C66.9864 58.2334 67.2479 58.2831 67.5005 58.3591C67.7098 58.4222 67.8835 58.5434 68.0447 58.6889C68.082 58.7756 68.1426 58.8536 68.1378 58.9559C68.1319 59.0831 68.1142 59.2086 68.075 59.3296C67.8574 60.001 67.1993 60.3523 66.5947 60.3115C66.4656 60.3028 66.3367 60.2902 66.2078 60.2793ZM67.7883 59.0176C67.8513 58.947 67.8345 58.8854 67.7733 58.8232C67.6568 58.7048 67.5195 58.6251 67.3634 58.5809C67.071 58.4981 66.7745 58.4289 66.4982 58.2943C66.4575 58.2745 66.4233 58.284 66.3841 58.299C66.2442 58.3527 66.1042 58.4076 65.9616 58.4526C65.8066 58.5015 65.6458 58.5318 65.4921 58.5846C65.3005 58.6503 65.2059 58.8368 65.2391 59.0417C65.2836 59.3151 65.4366 59.5125 65.6489 59.6627C65.9436 59.8713 66.2656 59.9823 66.6281 59.9217C66.6545 59.9202 66.681 59.9208 66.707 59.9169C67.2362 59.8356 67.5726 59.5044 67.7885 59.0177L67.7883 59.0176Z" fill="#451611"/>
<path d="M74.1099 55.8254C73.9487 54.6803 73.4848 53.7284 72.4375 53.2075C71.5737 52.778 70.6522 52.9618 69.9706 53.6748C69.5903 54.0724 69.3557 54.5524 69.217 55.0915C69.1339 55.4142 69.1127 55.7434 69.0953 56.0712C69.0816 56.332 69.1076 56.5968 69.1671 56.8545C69.1724 56.8776 69.1716 56.9021 69.1736 56.9261C69.0986 56.9644 69.1023 56.8965 69.093 56.857C69.0408 56.6316 69.0057 56.4048 68.9961 56.171C68.9815 55.8181 69.0076 55.4675 69.0627 55.1233C69.1614 54.5082 69.3621 53.928 69.7551 53.4418C70.1639 52.936 70.6938 52.6437 71.3273 52.6027C72.012 52.5582 72.6103 52.7943 73.0976 53.3049C73.6744 53.9095 74.0099 54.6367 74.1147 55.4795C74.1235 55.5504 74.1319 55.6215 74.1578 55.6888C74.1381 55.7329 74.1817 55.8009 74.1099 55.8254Z" fill="#F6BC4A"/>
<path d="M59.5662 66.5894C59.4927 66.7126 59.4137 66.8282 59.2802 66.8927C58.9717 67.0416 58.6175 66.8974 58.4636 66.5566C58.3853 66.3832 58.3484 66.2009 58.355 66.0095C58.3644 65.8826 58.3809 65.7573 58.4314 65.6395C58.5255 65.4209 58.6783 65.2649 58.9121 65.2418C59.1498 65.2184 59.3418 65.3222 59.4741 65.5366C59.6808 65.8718 59.6917 66.2239 59.5662 66.5896L59.5662 66.5894Z" fill="#B77C3B"/>
<path d="M60.9832 52.6985C60.7505 52.7916 60.573 52.9621 60.406 53.1457C60.3467 53.2111 60.2694 53.2111 60.1996 53.2065C60.167 53.2044 60.1143 53.1544 60.123 53.0908C60.1272 53.0198 60.1346 52.9514 60.1746 52.8883C60.2085 52.8349 60.231 52.7739 60.2586 52.7163C60.3933 52.4338 60.5417 52.1604 60.7506 51.9276C60.9743 51.6783 61.2826 51.6412 61.539 51.7723C61.6726 51.8406 61.7868 51.937 61.894 52.0454C61.971 52.1233 62.0222 52.2226 62.1039 52.2953L62.1036 52.2932C62.0877 52.3652 62.156 52.4134 62.1533 52.4817C62.0936 52.6196 62.0776 52.6278 61.9359 52.591C61.6448 52.5156 61.3583 52.5399 61.0774 52.6399C61.0464 52.651 60.994 52.6451 60.9833 52.6987L60.9832 52.6985Z" fill="#451611"/>
<path d="M65.7154 48.2255C66.0619 48.1612 66.3907 48.2091 66.6999 48.388C66.9424 48.5282 67.1319 48.7139 67.2151 48.9993C67.2849 49.2387 67.2596 49.4667 67.1476 49.6853C66.9179 50.1337 66.5351 50.3613 66.069 50.4136C65.7765 50.4464 65.474 50.4134 65.1946 50.2826C65.0625 50.2208 64.9514 50.1317 64.8641 50.0116C64.9027 50.0189 64.9416 50.0249 64.98 50.0339C65.0723 50.0559 65.1642 50.0788 65.2597 50.0562C65.3047 50.0666 65.3493 50.0807 65.3949 50.0867C65.8815 50.1485 66.4768 49.8996 66.7349 49.3552C66.8448 49.1232 66.8137 48.8693 66.6561 48.67C66.5769 48.5698 66.4792 48.4993 66.3768 48.4314C66.3667 48.3877 66.3287 48.3806 66.2967 48.364C66.1139 48.2685 65.916 48.241 65.7156 48.2257L65.7154 48.2255Z" fill="#B77C3B"/>
<path d="M71.6832 51.9248C71.7228 52.0084 71.7594 52.0928 71.7268 52.1893C71.6834 52.226 71.6352 52.2358 71.5788 52.2282C71.4784 52.215 71.4166 52.1373 71.3441 52.0808C70.8999 51.7343 70.4214 51.6016 69.8816 51.8089C69.8254 51.8306 69.7624 51.8491 69.7037 51.8069C69.6546 51.7581 69.6554 51.7055 69.6731 51.6383C69.7451 51.3655 69.9213 51.174 70.1215 50.9999C70.2802 50.8622 70.4649 50.8175 70.667 50.8457C70.8559 50.8721 70.9913 50.9945 71.1165 51.1294C71.3387 51.3687 71.5099 51.6474 71.6829 51.9246L71.6832 51.9248Z" fill="#451611"/>
<path d="M63.9151 55.627C63.8358 55.4728 63.7829 55.3063 63.7007 55.153C63.4337 54.6551 63.0764 54.2516 62.5686 54.0174C61.9309 53.7235 61.2893 53.7259 60.6647 54.0582C59.9756 54.4248 59.5515 55.0292 59.2955 55.7707C59.1792 56.1074 59.1127 56.4584 59.0994 56.8154C59.0922 57.012 59.0811 57.2115 59.116 57.4082C59.1201 57.4311 59.114 57.456 59.1128 57.4799C59.0231 57.4207 59.0526 57.3183 59.042 57.2375C59.0007 56.9168 59.0038 56.593 59.0489 56.2734C59.1004 55.9097 59.1989 55.5589 59.3494 55.223C59.5043 54.8777 59.6997 54.5638 59.9576 54.2924C60.3606 53.869 60.841 53.6133 61.4167 53.5522C62.1 53.4795 62.6619 53.7426 63.1461 54.2161C63.5057 54.5678 63.7502 54.9973 63.8995 55.4854C63.9133 55.5307 63.9294 55.5774 63.915 55.6268L63.9151 55.627Z" fill="#F6BC4A"/>
<path d="M59.2186 58.0318C59.2866 58.1844 59.3257 58.3483 59.3955 58.5006C59.6483 59.0514 60.0091 59.498 60.5377 59.7827C60.7625 59.9037 61.0019 59.971 61.2552 60.0066C61.8818 60.0949 62.4314 59.9136 62.921 59.5194C63.3424 59.1798 63.6369 58.7382 63.8347 58.2266C63.9888 57.8281 64.0723 57.4118 64.0891 56.9846C64.1058 56.555 64.0603 56.1299 63.9327 55.7176C63.9971 55.6677 63.9842 55.7414 63.9905 55.7622C64.0612 55.9914 64.1126 56.2259 64.139 56.4647C64.1648 56.6992 64.1626 56.9349 64.1598 57.1715C64.1559 57.5293 64.0891 57.8733 63.9915 58.2102C63.8864 58.5734 63.7216 58.9111 63.4993 59.2161C63.1959 59.6323 62.8158 59.9432 62.3396 60.1189C62.0657 60.22 61.7835 60.2698 61.4911 60.2352C61.3821 60.2224 61.2728 60.2139 61.1636 60.2036C61.028 60.1398 60.9125 60.0413 60.7829 59.9675C60.6865 59.9127 60.5867 59.8635 60.4801 59.8344C60.369 59.8039 60.2638 59.7489 60.1463 59.7449C59.8027 59.4899 59.5609 59.1532 59.4044 58.7485C59.3178 58.5246 59.2637 58.2905 59.2065 58.0575C59.2049 58.0504 59.2143 58.0404 59.2186 58.0318Z" fill="#B77C3B"/>
<path d="M65.2595 50.0559C65.164 50.0787 65.0721 50.0558 64.9798 50.0337C64.9415 50.0245 64.9026 50.0187 64.8639 50.0113C64.7005 49.9352 64.548 49.8431 64.4263 49.7029C64.184 49.4237 64.1889 49.0733 64.4127 48.777C64.5967 48.5333 64.8428 48.3995 65.1201 48.31C65.3146 48.2472 65.5143 48.2346 65.7153 48.2254C65.9157 48.2407 66.1135 48.2682 66.2964 48.3637C66.3282 48.3803 66.3663 48.3874 66.3765 48.4309C66.2886 48.3906 66.1978 48.357 66.1018 48.3508C65.6084 48.3192 65.1984 48.4942 64.8947 48.9031C64.7665 49.0756 64.6807 49.2721 64.7216 49.5017C64.7775 49.8146 64.9971 49.958 65.2595 50.0559Z" fill="#F6BC4A"/>
<path d="M74.1096 55.8255C74.1816 55.8011 74.138 55.7331 74.1575 55.6889C74.2185 55.8783 74.2343 56.0763 74.2556 56.2725C74.2822 56.5179 74.2741 56.7667 74.2484 57.0095C74.2151 57.3242 74.1553 57.6372 74.0405 57.9354C73.8783 58.3568 73.6379 58.7211 73.3225 59.0338L73.323 59.0333C73.3153 59.0394 73.3076 59.0455 73.2999 59.0516C73.0974 59.0899 72.8937 59.1219 72.698 59.192C72.6773 59.1994 72.6525 59.1945 72.6295 59.1953C72.7307 59.1304 72.8356 59.0711 72.9323 59C73.4865 58.5928 73.8214 58.0309 74.0014 57.3605C74.0699 57.1054 74.1198 56.8464 74.1316 56.5823C74.1429 56.33 74.1487 56.0765 74.1095 55.8253L74.1096 55.8255Z" fill="#B77C3B"/>
<path d="M71.683 51.9247C71.5101 51.6475 71.3387 51.3686 71.1167 51.1295C70.9915 50.9946 70.8561 50.8723 70.6671 50.8459C70.4651 50.8177 70.2802 50.8624 70.1217 51.0001C69.9213 51.1739 69.7453 51.3654 69.6733 51.6384C69.6556 51.7056 69.6548 51.7582 69.7037 51.807C69.6791 51.8056 69.6545 51.8039 69.6301 51.8025C69.5652 51.7695 69.5756 51.7036 69.5738 51.6484C69.5657 51.382 69.613 51.1251 69.7555 50.9015C69.9344 50.6205 70.2635 50.529 70.5933 50.637C70.9675 50.7596 71.2253 51.0243 71.4417 51.348C71.5235 51.4703 71.5875 51.6013 71.6465 51.7354C71.6721 51.7937 71.7175 51.8525 71.6832 51.9251L71.683 51.9247Z" fill="#F6BC4A"/>
<path d="M72.5478 67.3291C72.5438 67.2362 72.5815 67.139 72.6468 67.052C72.8255 66.8143 73.1157 66.8476 73.2397 67.1197C73.3295 67.3166 73.2271 67.6641 73.0514 67.771C72.9385 67.8396 72.8248 67.8502 72.713 67.7794C72.5929 67.7035 72.5407 67.584 72.538 67.4405C72.5374 67.4096 72.5433 67.3787 72.5479 67.3291L72.5478 67.3291Z" fill="#B77C3B"/>
<path d="M62.1039 52.2948C62.0224 52.2223 61.9711 52.1228 61.894 52.0449C61.7868 51.9366 61.6728 51.8401 61.539 51.7718C61.2826 51.6407 60.9743 51.678 60.7506 51.9271C60.5417 52.1599 60.3933 52.4333 60.2586 52.7158C60.2311 52.7734 60.2085 52.8345 60.1746 52.8878C60.1346 52.9509 60.1272 53.0193 60.123 53.0903C60.0612 53.0634 60.0617 53.0041 60.0808 52.9596C60.1734 52.7452 60.1977 52.512 60.2627 52.2906C60.3316 52.056 60.4195 51.8266 60.6039 51.6597C60.7296 51.5459 60.8699 51.4721 61.0506 51.4751C61.3628 51.4803 61.5981 51.6289 61.8033 51.8531C61.8254 51.8771 61.8539 51.895 61.8794 51.9156C61.8854 51.9234 61.8917 51.9313 61.8977 51.9391L61.8965 51.938C61.9339 51.9892 61.9779 52.0366 62.0068 52.0925C62.041 52.1586 62.1151 52.2051 62.1036 52.2944L62.1039 52.2948Z" fill="#F6BC4A"/>
<path d="M66.2078 60.279C66.3367 60.2899 66.4655 60.3026 66.5946 60.3112C67.1995 60.3521 67.8574 60.0008 68.075 59.3293C68.1142 59.2082 68.1319 59.0829 68.1378 58.9556C68.1425 58.8536 68.082 58.7754 68.0446 58.6887C68.1555 58.7241 68.2005 58.8243 68.2393 58.9203C68.2961 59.0603 68.3143 59.211 68.3197 59.3631C68.3282 59.6003 68.1833 59.7554 68.0348 59.8954C67.6556 60.2537 67.2087 60.4293 66.6902 60.3838C66.5449 60.3711 66.3998 60.356 66.2578 60.3195C66.2338 60.3133 66.2121 60.3089 66.2076 60.279L66.2078 60.279Z" fill="#B77C3B"/>
<path d="M59.8696 59.6975C59.5678 59.6888 59.2674 59.7106 58.9695 59.7572C58.8357 59.7783 58.7033 59.8212 58.5754 59.8691C58.4402 59.9198 58.2955 59.9471 58.1717 60.0274C57.9559 60.1674 57.7199 60.2832 57.5521 60.487C57.3556 60.7256 57.2136 60.9968 57.1913 61.3198C57.105 60.9965 57.193 60.7112 57.3764 60.4516C57.7309 59.9502 58.24 59.7511 58.8099 59.6727C59.1295 59.6288 59.4488 59.6311 59.7685 59.6669C59.8033 59.6707 59.8433 59.661 59.8696 59.6973L59.8696 59.6975Z" fill="#FABF4C"/>
<path d="M69.8492 58.4201C70.0297 58.6218 70.2113 58.8228 70.4348 58.9755C70.7053 59.1606 70.994 59.2927 71.317 59.3562C71.6603 59.4237 71.9931 59.4056 72.326 59.3104C72.335 59.3079 72.3456 59.3112 72.3555 59.3117C72.3193 59.3835 72.2428 59.387 72.1838 59.4201C72.1488 59.4154 72.1216 59.4357 72.0923 59.45C71.9838 59.5026 71.8751 59.5546 71.7665 59.607C71.3496 59.5719 70.9527 59.4649 70.583 59.2567C70.3814 59.1432 70.208 59.0005 70.0852 58.7946C70.0244 58.6927 69.9337 58.612 69.8775 58.5052C69.863 58.4776 69.8451 58.4534 69.849 58.4199L69.8492 58.4201Z" fill="#B77C3B"/>
<path d="M69.6299 51.8021C69.6545 51.8036 69.6789 51.8052 69.7035 51.8066C69.7622 51.8488 69.8252 51.8302 69.8814 51.8087C70.4211 51.6013 70.8997 51.7341 71.3439 52.0805C71.4164 52.137 71.4782 52.2148 71.5786 52.228C71.635 52.2354 71.6832 52.2258 71.7266 52.189C71.704 52.2927 71.6324 52.3266 71.5118 52.2772C71.4073 52.2343 71.2991 52.1911 71.208 52.1252C71.0339 51.9989 70.837 51.9454 70.6357 51.9055C70.4638 51.8714 70.2934 51.904 70.1254 51.9497C70.0299 51.9757 69.9332 52.0092 69.8326 51.9872C69.7331 51.9655 69.6574 51.9109 69.6301 51.8022L69.6299 51.8021Z" fill="#B77C3B"/>
<path d="M59.5662 66.5903C59.6918 66.2246 59.6808 65.8726 59.4741 65.5373C59.3419 65.3229 59.1499 65.2191 58.9121 65.2425C58.6783 65.2656 58.5256 65.4214 58.4315 65.6402C58.3808 65.758 58.3643 65.8833 58.3551 66.0102C58.2673 65.5991 58.4855 65.11 59.0276 65.1271C59.1773 65.1319 59.3085 65.2184 59.4251 65.3213C59.7158 65.5778 59.8124 66.128 59.6568 66.479C59.637 66.5234 59.6268 66.5799 59.5662 66.5903Z" fill="#F6BC4A"/>
<path d="M62.1038 52.2954C62.1154 52.206 62.0413 52.1594 62.0071 52.0935C61.9782 52.0376 61.9342 51.9902 61.8968 51.9389C62.0832 51.9929 62.1729 52.1511 62.2618 52.308C62.2951 52.3667 62.3161 52.4329 62.3433 52.4953C62.3836 52.5879 62.345 52.6615 62.2898 52.7304C62.2353 52.7984 62.1643 52.7857 62.0975 52.7642C61.7506 52.6523 61.4026 52.5737 61.0423 52.7013C61.025 52.7075 61.0031 52.7001 60.9833 52.699C60.994 52.6452 61.0462 52.6511 61.0774 52.6401C61.3583 52.5402 61.6449 52.5159 61.9358 52.5912C62.0775 52.628 62.0936 52.6198 62.1532 52.482C62.2089 52.431 62.1902 52.3601 62.1035 52.2935L62.1038 52.2956L62.1038 52.2954Z" fill="#B77C3B"/>
<path d="M71.7664 59.6073C71.875 59.5551 71.9837 59.5029 72.0922 59.4503C72.1215 59.4361 72.1486 59.4157 72.1837 59.4205C72.096 59.5283 71.9658 59.5814 71.872 59.6816C71.6602 59.9075 71.5131 60.1552 71.5141 60.4911C71.5145 60.6508 71.5515 60.7948 71.6024 60.9322C71.6315 61.011 71.676 61.1027 71.7464 61.1641C71.7705 61.1851 71.7685 61.2026 71.7551 61.2255C71.6951 61.214 71.6706 61.1591 71.6422 61.116C71.4074 60.7593 71.2957 60.3837 71.4906 59.9651C71.539 59.8611 71.6118 59.7777 71.6901 59.6982C71.7179 59.67 71.7589 59.6537 71.7664 59.6071L71.7664 59.6073Z" fill="#FABF4C"/>
<path d="M71.7551 61.2251C71.8018 61.2362 71.826 61.2664 71.8273 61.3162C71.78 61.3057 71.7557 61.2754 71.7551 61.2251Z" fill="#FABF4C"/>
<path d="M71.8266 61.3154C71.8665 61.3217 71.8861 61.3511 71.9006 61.3859C71.8572 61.3835 71.8238 61.3697 71.8266 61.3154Z" fill="#FABF4C"/>
<path d="M71.9003 61.3857C71.9387 61.3912 71.9559 61.4148 71.9559 61.4539C71.9171 61.4491 71.8984 61.4265 71.9003 61.3857Z" fill="#FABF4C"/>
<path d="M59.9859 59.7282C59.958 59.7254 59.927 59.7327 59.9081 59.7016C59.9469 59.6701 59.9639 59.7068 59.9859 59.7282Z" fill="#FABF4C"/>
<path d="M64.6208 66.3838C64.6362 66.3891 64.6475 66.3985 64.6506 66.4162C64.6343 66.4118 64.6198 66.4055 64.6208 66.3838Z" fill="#F6BC4A"/>
<path d="M57.0732 64.5103C57.0761 64.5125 57.0789 64.5149 57.0818 64.5171C57.0789 64.5149 57.0761 64.5125 57.0734 64.5103L57.0732 64.5103Z" fill="#FABF4C"/>
<path d="M69.4867 64.2205C69.4494 64.4687 69.3794 64.7082 69.3019 64.9456C69.1366 65.4523 68.9103 65.9245 68.567 66.3291C68.2555 66.6962 67.8815 66.9571 67.4091 67.0453C66.9337 67.1341 66.5083 66.9936 66.1097 66.7369C65.8976 66.6005 65.7028 66.4412 65.5322 66.2513C65.5409 66.1209 65.5512 65.9912 65.5966 65.8673C65.7622 65.416 66.0836 65.1072 66.4627 64.8529C66.9339 64.5369 67.4542 64.3494 68.0009 64.2365C68.2765 64.1796 68.5559 64.1473 68.837 64.1568C69.0543 64.1642 69.2743 64.154 69.4867 64.2203L69.4867 64.2205Z" fill="#F3A264"/>
<path d="M69.4869 64.22C69.2744 64.1538 69.0545 64.164 68.8372 64.1566C68.5561 64.147 68.2767 64.1793 68.0011 64.2363C67.4542 64.3492 66.934 64.5367 66.4629 64.8526C66.0838 65.1068 65.7624 65.4156 65.5968 65.867C65.5513 65.991 65.541 66.1207 65.5323 66.2511C65.3544 66.0678 65.1802 65.8816 65.0592 65.6502C65.0923 65.6183 65.1014 65.5731 65.1189 65.5327C65.2 65.347 65.298 65.1717 65.4189 65.011C65.7228 64.6065 66.1108 64.3173 66.5617 64.1137C67.25 63.8029 67.9644 63.6447 68.7186 63.7056C68.8714 63.7179 69.0184 63.764 69.1711 63.7737C69.1829 63.7774 69.1945 63.7812 69.2062 63.7849C69.2205 63.7903 69.2347 63.7959 69.249 63.8013C69.3152 63.8294 69.3799 63.8628 69.4479 63.8846C69.5431 63.9152 69.5476 63.9861 69.5213 64.0613C69.5029 64.1139 69.4989 64.1676 69.487 64.2202L69.4869 64.22Z" fill="#F2956E"/>
<path d="M69.1709 63.7733C69.0183 63.7636 68.8713 63.7177 68.7184 63.7052C67.9641 63.6443 67.2498 63.8025 66.5614 64.1133C66.1106 64.3169 65.7226 64.6061 65.4186 65.0106C65.2977 65.1715 65.1997 65.3466 65.1187 65.5323C65.1011 65.5727 65.0921 65.6179 65.0589 65.6498C64.965 65.5688 64.9171 65.4033 64.954 65.2907C65.052 64.9914 65.2451 64.7586 65.4602 64.5487C66.0794 63.9438 66.8312 63.6461 67.6681 63.5648C67.9519 63.5373 68.2391 63.5354 68.5207 63.5852C68.7424 63.6244 68.9684 63.6576 69.1707 63.7731L69.1709 63.7733Z" fill="#8B5028"/>
<path d="M69.2489 63.8014C69.2346 63.796 69.2203 63.7904 69.2059 63.785C69.2252 63.7768 69.2393 63.783 69.2489 63.8014Z" fill="#8B5028"/>
<path d="M71.8413 60.2968C71.8698 60.0187 72.0082 59.8358 72.1779 59.6705C72.4201 59.4349 72.7145 59.3218 73.0381 59.3036C73.2829 59.2896 73.5131 59.3546 73.7061 59.5304C74.0204 59.8166 73.9321 60.2304 73.7096 60.5067C73.4769 60.7954 73.1825 60.9739 72.8288 61.0302C72.5964 61.0672 72.3577 61.0687 72.1467 60.9212C71.923 60.7648 71.803 60.5579 71.8413 60.2968Z" fill="#F3A264"/>
<path d="M72.3557 59.3117C72.3638 59.2913 72.3805 59.2932 72.397 59.294C72.3877 59.3108 72.3736 59.3159 72.3557 59.3117Z" fill="#B77C3B"/>
<path d="M73.3002 59.0525C73.3081 59.0463 73.3159 59.0401 73.3237 59.0339L73.3002 59.0525Z" fill="#EEA942"/>
<path d="M58.7696 60.064C58.9677 60.0865 59.1399 60.1132 59.2712 60.2524C59.4455 60.4371 59.4578 60.6569 59.3886 60.8882C59.3051 61.1672 59.1192 61.3629 58.8921 61.5246C58.7449 61.6296 58.5862 61.7124 58.4162 61.7594C58.2415 61.8078 58.0625 61.8224 57.8785 61.7742C57.7517 61.7409 57.6267 61.7179 57.5363 61.6109C57.4206 61.4738 57.3564 61.3301 57.383 61.1308C57.4295 60.782 57.6296 60.5638 57.882 60.3628C58.044 60.2339 58.2243 60.1559 58.4121 60.0987C58.5318 60.0624 58.6628 60.0346 58.7694 60.0639L58.7696 60.064Z" fill="#F3A264"/>
<path d="M73.8572 55.8671C73.8898 56.0289 73.8967 56.1949 73.8908 56.3574C73.8645 57.0941 73.6715 57.774 73.2083 58.3497C72.861 58.7812 72.4243 59.0567 71.8786 59.1233C71.4238 59.1789 71.0114 59.0476 70.6351 58.7911C70.082 58.4141 69.7374 57.8731 69.5246 57.2336C69.4204 56.9205 69.3554 56.599 69.348 56.2664C69.4488 56.3152 69.4721 56.4275 69.5268 56.5118C69.7141 56.8007 69.8829 57.1036 70.1396 57.3366C70.2778 57.4621 70.4105 57.5956 70.5798 57.6781C70.6542 57.7515 70.7255 57.8287 70.8036 57.8975C71.1246 58.1797 71.4908 58.3122 71.9141 58.2472C72.0016 58.34 72.1089 58.3749 72.2328 58.3856C72.6233 58.4195 72.8491 58.1419 72.7382 57.7562C72.8579 57.5942 72.9547 57.4172 73.0486 57.2385C73.0659 57.2395 73.0794 57.234 73.0924 57.2203C73.4294 56.8742 73.6308 56.443 73.8049 55.9954C73.8217 55.9522 73.8139 55.8987 73.8572 55.867L73.8572 55.8671Z" fill="#5A975B"/>
<path d="M69.5211 54.9319C69.7719 54.2107 70.1927 53.6493 70.8998 53.359C71.1118 53.272 71.3335 53.2401 71.5609 53.2435C72.1232 53.252 72.5759 53.5109 72.9701 53.9039C73.2121 54.1452 73.3971 54.4287 73.5433 54.7409C73.5609 54.7783 73.5799 54.8144 73.577 54.8578C73.5625 54.8496 73.5456 54.8442 73.5339 54.833C73.3055 54.6158 73.0281 54.4867 72.7483 54.3621C72.7212 54.3501 72.6929 54.3152 72.6589 54.351C72.4639 54.1264 72.2421 53.9398 71.9615 53.8434C71.8157 53.7933 71.6671 53.7472 71.5093 53.7763C71.3237 53.708 71.1334 53.691 70.9367 53.6994C70.7008 53.7096 70.5099 53.8213 70.3393 53.9705C70.1283 54.155 70.0108 54.3964 69.9971 54.6868C69.8828 54.6746 69.7832 54.7088 69.6957 54.7857C69.6386 54.8359 69.5792 54.8834 69.5209 54.9321L69.5211 54.9319Z" fill="#3C5A3C"/>
<path d="M69.5213 54.9322C69.5796 54.8835 69.6389 54.836 69.696 54.7858C69.7835 54.709 69.8833 54.6748 69.9974 54.6869C69.9876 54.8962 69.9592 55.108 70.0801 55.2982C70.0518 55.3706 70.0302 55.4444 70.0226 55.5226C70.0049 55.7032 70.0049 55.884 70.0115 56.0652C70.0238 56.3969 70.0936 56.7142 70.2116 57.0232C70.3029 57.2621 70.4363 57.4726 70.5796 57.6787C70.4103 57.5961 70.2776 57.4627 70.1394 57.3371C69.8825 57.1042 69.7139 56.8013 69.5266 56.5124C69.4719 56.4281 69.4487 56.316 69.3478 56.267L69.3505 56.2662C69.3526 56.2442 69.3605 56.2214 69.3405 56.2033C69.3367 56.0504 69.324 55.8974 69.3407 55.7448C69.3712 55.4669 69.428 55.1952 69.5211 54.932L69.5213 54.9322Z" fill="#4E7A4F"/>
<path d="M72.659 54.3509C72.693 54.3151 72.7213 54.3499 72.7483 54.362C73.0282 54.4866 73.3056 54.6157 73.5339 54.8329C73.5457 54.844 73.5626 54.8495 73.5771 54.8577C73.6781 54.9998 73.7106 55.1703 73.7566 55.3342C73.8055 55.5082 73.8442 55.6854 73.8569 55.8671C73.8136 55.8989 73.8214 55.9523 73.8046 55.9955C73.6305 56.4432 73.4291 56.8744 73.0922 57.2205C73.0789 57.234 73.0656 57.2397 73.0483 57.2386C73.1086 57.0396 73.1744 56.8412 73.2047 56.6348C73.2525 56.3076 73.2572 55.9785 73.2071 55.6504C73.1333 55.1678 72.9585 54.7311 72.659 54.3509Z" fill="#4E7A4F"/>
<path d="M69.3408 56.2029C69.3609 56.2211 69.3531 56.244 69.3509 56.2661C69.3279 56.2484 69.3367 56.2253 69.3408 56.2029Z" fill="#5A975B"/>
<path d="M63.8228 56.3974C63.8606 56.705 63.8713 57.0147 63.818 57.3195C63.6509 58.2762 63.2397 59.0708 62.3815 59.5479C62.0886 59.7108 61.7717 59.7875 61.435 59.7729C60.933 59.7513 60.5161 59.5328 60.1654 59.1764C59.6596 58.6624 59.4176 58.0194 59.3519 57.298C59.3349 57.1108 59.318 56.9228 59.3463 56.7349C59.4115 56.8132 59.4357 56.913 59.4718 57.0052C59.5891 57.3053 59.7408 57.5847 59.9251 57.8456C60.2303 58.2775 60.6292 58.5743 61.1229 58.7301C61.1915 58.7518 61.2614 58.7922 61.3392 58.7656C61.4621 58.7931 61.5849 58.8206 61.7115 58.8208C61.7817 58.9925 61.9115 59.0568 62.0861 59.0704C62.4456 59.0985 62.6649 58.8642 62.6099 58.4969C62.7304 58.4925 62.7761 58.3813 62.8434 58.3093C63.0347 58.1047 63.1821 57.8627 63.3473 57.6362C63.6008 57.2887 63.7851 56.9102 63.8003 56.4625C63.8012 56.4391 63.8006 56.4135 63.8225 56.3972L63.8228 56.3974Z" fill="#5A975B"/>
<path d="M61.3393 58.7656C61.2615 58.7922 61.1916 58.7518 61.1229 58.7301C60.6292 58.5743 60.2301 58.2775 59.9251 57.8456C59.7408 57.5848 59.5891 57.3055 59.4719 57.0052C59.4359 56.913 59.4117 56.8132 59.3464 56.7349C59.3504 56.5822 59.375 56.4327 59.4108 56.2849C59.4476 56.2825 59.46 56.2508 59.4724 56.2242C59.5657 56.0235 59.694 55.8486 59.8481 55.6964C59.9492 55.5964 60.0661 55.5151 60.2191 55.5327C60.2306 55.6239 60.2422 55.715 60.2537 55.8061C60.2502 55.8369 60.2488 55.8681 60.2429 55.8985C60.1795 56.2296 60.1415 56.5632 60.1718 56.9008C60.2147 57.3796 60.3623 57.8206 60.639 58.209C60.8199 58.4631 61.0587 58.644 61.3393 58.7656Z" fill="#4E7A4F"/>
<path d="M60.2193 55.5323C60.0661 55.5148 59.9494 55.596 59.8483 55.6959C59.6942 55.8481 59.5659 56.0231 59.4726 56.2238C59.4603 56.2504 59.4477 56.2822 59.411 56.2845C59.5403 55.6933 59.7889 55.1688 60.2059 54.7354C60.5932 54.3328 61.0543 54.0929 61.6035 54.0547C61.9381 54.0314 62.2513 54.1269 62.5424 54.2924C63.1294 54.6266 63.4813 55.1569 63.6918 55.8012C63.6958 55.8136 63.6937 55.8281 63.6946 55.8416C63.6698 55.8377 63.6533 55.8211 63.6395 55.8011C63.4716 55.5582 63.2462 55.3789 63.0165 55.2062C62.9246 55.137 62.8336 55.0544 62.7074 55.0564C62.6836 55.0283 62.6604 54.9999 62.6357 54.9726C62.4748 54.7938 62.2972 54.6404 62.0629 54.5756C61.946 54.513 61.8583 54.4089 61.7153 54.3777C61.5689 54.3458 61.4223 54.3102 61.2757 54.3137C61.1641 54.3162 61.0418 54.3007 60.9377 54.3607C60.8323 54.4213 60.7138 54.4605 60.6241 54.547C60.4976 54.6688 60.3737 54.7927 60.3088 54.967C60.2408 55.1498 60.2392 55.3423 60.2191 55.5323L60.2193 55.5323Z" fill="#3C5A3C"/>
<path d="M62.7073 55.0575C62.8336 55.0556 62.9246 55.1382 63.0165 55.2073C63.246 55.3801 63.4714 55.5593 63.6395 55.8023C63.6532 55.8221 63.6698 55.8389 63.6946 55.8427C63.7557 56.0231 63.7991 56.208 63.8229 56.3977C63.8009 56.4141 63.8014 56.4396 63.8007 56.4631C63.7855 56.9107 63.6009 57.2894 63.3477 57.6367C63.1823 57.8634 63.0349 58.1054 62.8438 58.3098C62.7765 58.3817 62.7308 58.493 62.6102 58.4974C62.6041 58.4834 62.5981 58.4695 62.5919 58.4555C62.6697 58.4234 62.7154 58.3538 62.7638 58.2901C63.1601 57.7672 63.2706 57.1574 63.2441 56.5141C63.2216 55.9705 63.0491 55.4788 62.7076 55.0579L62.7073 55.0575Z" fill="#4E7A4F"/>
<path d="M67.7884 59.0172C67.5725 59.504 67.2362 59.8351 66.7069 59.9163C66.681 59.9203 66.6543 59.9197 66.628 59.9211C66.6035 59.9113 66.5798 59.8969 66.5546 59.8921C66.3673 59.8569 66.1913 59.7945 66.0293 59.6868C65.9 59.6009 65.7552 59.3217 65.861 59.129C65.9214 59.019 65.9989 58.9278 66.1069 58.8663C66.3275 58.7403 66.5592 58.6682 66.8151 58.6583C67.057 58.6491 67.2814 58.6802 67.4865 58.8192C67.5862 58.8867 67.6877 58.9511 67.7882 59.017L67.7884 59.0172Z" fill="#EEA942"/>
<path d="M67.7881 59.0173C67.6874 58.9514 67.5859 58.887 67.4864 58.8196C67.2811 58.6806 67.0569 58.6494 66.815 58.6586C66.5591 58.6683 66.3274 58.7407 66.1068 58.8666C65.9988 58.9282 65.9213 59.0193 65.8609 59.1294C65.7551 59.3221 65.8999 59.6012 66.0292 59.6872C66.1911 59.795 66.3671 59.8572 66.5544 59.8924C66.5797 59.8972 66.6034 59.9114 66.6279 59.9215C66.2654 59.982 65.9433 59.871 65.6486 59.6625C65.4364 59.5123 65.2833 59.3149 65.2389 59.0415C65.2055 58.8365 65.3 58.6501 65.4918 58.5844C65.6455 58.5317 65.8062 58.5013 65.9614 58.4523C66.1041 58.4074 66.2439 58.3526 66.3838 58.2987C66.423 58.2837 66.4573 58.2743 66.4979 58.294C66.7741 58.4286 67.0706 58.4979 67.3631 58.5806C67.5192 58.6249 67.6566 58.7044 67.7731 58.8229C67.8344 58.8854 67.8512 58.9469 67.7881 59.0173Z" fill="#F6BC4A"/>
<path d="M62.1036 52.293C62.1906 52.36 62.2094 52.4311 62.1535 52.4823C62.1563 52.4137 62.0877 52.3654 62.1036 52.293Z" fill="#F6BC4A"/>
<path d="M65.2598 50.0558C64.9974 49.9579 64.7777 49.8145 64.7219 49.5016C64.681 49.272 64.7667 49.0755 64.895 48.903C65.1987 48.4941 65.6085 48.3191 66.1021 48.3507C66.1981 48.3569 66.2888 48.3905 66.3768 48.4308C66.4791 48.4987 66.5768 48.5693 66.656 48.6694C66.8136 48.8687 66.8449 49.1227 66.7348 49.3547C66.4769 49.899 65.8814 50.1479 65.3948 50.0861C65.3492 50.0803 65.3048 50.066 65.2597 50.0556L65.2598 50.0558Z" fill="#451611"/>
<path d="M72.659 54.3507C72.9585 54.731 73.1335 55.1676 73.2071 55.6502C73.2572 55.9785 73.2527 56.3075 73.2046 56.6347C73.1744 56.841 73.1086 57.0394 73.0483 57.2384C72.9546 57.4172 72.8576 57.5941 72.7379 57.7562C72.6416 57.6228 72.501 57.5861 72.3541 57.5875C72.0321 57.5904 71.7123 57.8844 71.9138 58.2472C71.4905 58.3122 71.1243 58.1797 70.8034 57.8974C70.7252 57.8287 70.6539 57.7515 70.5795 57.6781C70.4362 57.472 70.3028 57.2615 70.2115 57.0226C70.0934 56.7136 70.0237 56.3963 70.0114 56.0646C70.0048 55.8834 70.0048 55.7026 70.0225 55.5221C70.0302 55.4439 70.0517 55.37 70.08 55.2977C70.1944 55.5836 70.3985 55.7799 70.6689 55.8959C71.0831 56.0734 71.4732 56.0158 71.8277 55.7299C71.8904 55.6795 71.9579 55.6224 71.994 55.5523C72.0684 55.4075 72.1603 55.2715 72.1835 55.0989C72.2241 54.7983 72.2141 54.5114 72.0582 54.2432C71.9904 54.1268 71.9068 54.0186 71.8032 53.9455C71.7126 53.8817 71.6414 53.7667 71.5095 53.776C71.6673 53.7471 71.8158 53.793 71.9617 53.8431C72.2424 53.9395 72.4641 54.1261 72.6591 54.3508L72.659 54.3507Z" fill="#1F100B"/>
<path d="M71.914 58.2471C71.7126 57.8843 72.0324 57.5903 72.3543 57.5874C72.5012 57.586 72.6418 57.6227 72.7381 57.7561C72.8491 58.1418 72.6232 58.4194 72.2327 58.3855C72.1088 58.3747 72.0016 58.3399 71.914 58.2471Z" fill="#FEFEFE"/>
<path d="M71.5097 53.776C71.6416 53.7667 71.7129 53.8818 71.8034 53.9456C71.907 54.0186 71.9906 54.1268 72.0584 54.2432C72.2144 54.5115 72.2243 54.7984 72.1837 55.099C72.1604 55.2716 72.0686 55.4075 71.9942 55.5523C71.9581 55.6225 71.8905 55.6795 71.8279 55.73C71.4734 56.0159 71.0833 56.0735 70.6691 55.8959C70.3987 55.7799 70.1948 55.5838 70.0802 55.2977C69.9593 55.1075 69.9877 54.8956 69.9975 54.6864C70.0112 54.396 70.1287 54.1548 70.3397 53.9701C70.5103 53.8209 70.7012 53.7091 70.9371 53.699C71.1338 53.6905 71.3241 53.7076 71.5097 53.7758L71.5097 53.776Z" fill="#FEFEFE"/>
<path d="M62.7073 55.0575C63.0489 55.4784 63.2215 55.9701 63.2438 56.5137C63.2703 57.1569 63.1598 57.7668 62.7635 58.2897C62.7153 58.3535 62.6695 58.423 62.5916 58.4551C62.4937 58.2629 62.1681 58.235 61.9894 58.3176C61.7737 58.4176 61.6769 58.5847 61.7115 58.8209C61.585 58.8208 61.4621 58.7933 61.3393 58.7658C61.0585 58.6441 60.82 58.4632 60.639 58.2092C60.3623 57.8206 60.2148 57.3796 60.1718 56.901C60.1415 56.5633 60.1795 56.2298 60.243 55.8986C60.2488 55.8683 60.2502 55.8371 60.2538 55.8063C60.263 55.8196 60.2753 55.8317 60.2812 55.8464C60.4048 56.1515 60.6032 56.3856 60.9001 56.5134C61.3185 56.6931 61.7119 56.6358 62.07 56.3472C62.1326 56.2967 62.1983 56.2381 62.2352 56.1678C62.3096 56.0267 62.4 55.8921 62.4197 55.7227C62.439 55.5554 62.4663 55.3858 62.4314 55.2226C62.3954 55.0542 62.3388 54.8866 62.2228 54.7524C62.171 54.6925 62.1163 54.6352 62.0629 54.5767C62.2973 54.6416 62.4748 54.795 62.6357 54.9738C62.6602 55.001 62.6834 55.0297 62.7073 55.0575Z" fill="#1F100B"/>
<path d="M61.7115 58.8205C61.6769 58.5843 61.7736 58.4172 61.9893 58.3172C62.1681 58.2344 62.4938 58.2625 62.5916 58.4547C62.5977 58.4687 62.6037 58.4826 62.6099 58.4966C62.665 58.864 62.4457 59.0981 62.0861 59.0702C61.9117 59.0566 61.7817 58.9924 61.7115 58.8205Z" fill="#FEFEFE"/>
<path d="M62.0628 54.5768C62.1162 54.6353 62.171 54.6924 62.2227 54.7525C62.3388 54.8867 62.3954 55.0544 62.4314 55.2227C62.4663 55.3858 62.4389 55.5555 62.4196 55.7228C62.4002 55.8922 62.3096 56.0267 62.2352 56.1679C62.1983 56.2381 62.1326 56.2967 62.0699 56.3472C61.712 56.6358 61.3184 56.6931 60.9001 56.5134C60.603 56.3858 60.4046 56.1517 60.2812 55.8465C60.2752 55.8318 60.2629 55.8197 60.2537 55.8064C60.2422 55.7152 60.2306 55.6241 60.2191 55.533C60.2392 55.343 60.2407 55.1506 60.3088 54.9677C60.3735 54.7936 60.4976 54.6695 60.6241 54.5477C60.7138 54.4614 60.8324 54.4221 60.9376 54.3614C61.0418 54.3015 61.1641 54.3171 61.2757 54.3144C61.4223 54.3109 61.5689 54.3465 61.7153 54.3784C61.8583 54.4096 61.9459 54.5139 62.0629 54.5763L62.0628 54.5768Z" fill="#FEFEFE"/>
</g>
<defs>
<filter id="filter0_d_1111_12410" x="0.485714" y="0.485714" width="121.029" height="121.029" filterUnits="userSpaceOnUse" color-interpolation-filters="sRGB">
<feFlood flood-opacity="0" result="BackgroundImageFix"/>
<feColorMatrix in="SourceAlpha" type="matrix" values="0 0 0 0 0 0 0 0 0 0 0 0 0 0 0 0 0 0 127 0" result="hardAlpha"/>
<feOffset/>
<feGaussianBlur stdDeviation="15.2571"/>
<feComposite in2="hardAlpha" operator="out"/>
<feColorMatrix type="matrix" values="0 0 0 0 0 0 0 0 0 0 0 0 0 0 0 0 0 0 0.3 0"/>
<feBlend mode="normal" in2="BackgroundImageFix" result="effect1_dropShadow_1111_12410"/>
<feBlend mode="normal" in="SourceGraphic" in2="effect1_dropShadow_1111_12410" result="shape"/>
</filter>
</defs>
</svg>
